%TF.GenerationSoftware,KiCad,Pcbnew,5.1.8*%
%TF.CreationDate,2020-12-05T00:24:13-05:00*%
%TF.ProjectId,cantankerous,63616e74-616e-46b6-9572-6f75732e6b69,rev?*%
%TF.SameCoordinates,Original*%
%TF.FileFunction,Paste,Bot*%
%TF.FilePolarity,Positive*%
%FSLAX46Y46*%
G04 Gerber Fmt 4.6, Leading zero omitted, Abs format (unit mm)*
G04 Created by KiCad (PCBNEW 5.1.8) date 2020-12-05 00:24:13*
%MOMM*%
%LPD*%
G01*
G04 APERTURE LIST*
%ADD10R,0.740000X2.400000*%
G04 APERTURE END LIST*
D10*
%TO.C,J1*%
X150050500Y-103695500D03*
X150050500Y-99795500D03*
X148780500Y-103695500D03*
X148780500Y-99795500D03*
X147510500Y-103695500D03*
X147510500Y-99795500D03*
X146240500Y-103695500D03*
X146240500Y-99795500D03*
X144970500Y-103695500D03*
X144970500Y-99795500D03*
X143700500Y-103695500D03*
X143700500Y-99795500D03*
X142430500Y-103695500D03*
X142430500Y-99795500D03*
%TD*%
%TO.C,R3*%
G36*
G01*
X147741000Y-96614000D02*
X147741000Y-96934000D01*
G75*
G02*
X147581000Y-97094000I-160000J0D01*
G01*
X147186000Y-97094000D01*
G75*
G02*
X147026000Y-96934000I0J160000D01*
G01*
X147026000Y-96614000D01*
G75*
G02*
X147186000Y-96454000I160000J0D01*
G01*
X147581000Y-96454000D01*
G75*
G02*
X147741000Y-96614000I0J-160000D01*
G01*
G37*
G36*
G01*
X148936000Y-96614000D02*
X148936000Y-96934000D01*
G75*
G02*
X148776000Y-97094000I-160000J0D01*
G01*
X148381000Y-97094000D01*
G75*
G02*
X148221000Y-96934000I0J160000D01*
G01*
X148221000Y-96614000D01*
G75*
G02*
X148381000Y-96454000I160000J0D01*
G01*
X148776000Y-96454000D01*
G75*
G02*
X148936000Y-96614000I0J-160000D01*
G01*
G37*
%TD*%
%TO.C,R4*%
G36*
G01*
X151233500Y-96614000D02*
X151233500Y-96934000D01*
G75*
G02*
X151073500Y-97094000I-160000J0D01*
G01*
X150678500Y-97094000D01*
G75*
G02*
X150518500Y-96934000I0J160000D01*
G01*
X150518500Y-96614000D01*
G75*
G02*
X150678500Y-96454000I160000J0D01*
G01*
X151073500Y-96454000D01*
G75*
G02*
X151233500Y-96614000I0J-160000D01*
G01*
G37*
G36*
G01*
X150038500Y-96614000D02*
X150038500Y-96934000D01*
G75*
G02*
X149878500Y-97094000I-160000J0D01*
G01*
X149483500Y-97094000D01*
G75*
G02*
X149323500Y-96934000I0J160000D01*
G01*
X149323500Y-96614000D01*
G75*
G02*
X149483500Y-96454000I160000J0D01*
G01*
X149878500Y-96454000D01*
G75*
G02*
X150038500Y-96614000I0J-160000D01*
G01*
G37*
%TD*%
%TO.C,R5*%
G36*
G01*
X145883000Y-96934000D02*
X145883000Y-96614000D01*
G75*
G02*
X146043000Y-96454000I160000J0D01*
G01*
X146438000Y-96454000D01*
G75*
G02*
X146598000Y-96614000I0J-160000D01*
G01*
X146598000Y-96934000D01*
G75*
G02*
X146438000Y-97094000I-160000J0D01*
G01*
X146043000Y-97094000D01*
G75*
G02*
X145883000Y-96934000I0J160000D01*
G01*
G37*
G36*
G01*
X144688000Y-96934000D02*
X144688000Y-96614000D01*
G75*
G02*
X144848000Y-96454000I160000J0D01*
G01*
X145243000Y-96454000D01*
G75*
G02*
X145403000Y-96614000I0J-160000D01*
G01*
X145403000Y-96934000D01*
G75*
G02*
X145243000Y-97094000I-160000J0D01*
G01*
X144848000Y-97094000D01*
G75*
G02*
X144688000Y-96934000I0J160000D01*
G01*
G37*
%TD*%
M02*
