M48
; DRILL file {KiCad 5.1.8} date Sat Dec  5 00:24:18 2020
; FORMAT={-:-/ absolute / inch / decimal}
; #@! TF.CreationDate,2020-12-05T00:24:18-05:00
; #@! TF.GenerationSoftware,Kicad,Pcbnew,5.1.8
; #@! TF.FileFunction,Plated,1,2,PTH
FMAT,2
INCH
T1C0.0118
T2C0.0157
T3C0.0197
T4C0.0236
T5C0.0394
T6C0.0512
%
G90
G05
T1
X5.0829Y-4.091
X5.1225Y-4.2025
X5.29Y-4.15
X5.3275Y-4.195
X5.4025Y-4.13
X5.42Y-3.78
X5.42Y-4.1
X5.45Y-4.49
X5.4825Y-3.8775
X5.495Y-4.3575
X5.5225Y-4.005
X5.5275Y-3.905
X5.5425Y-4.195
X5.5475Y-4.0575
X5.5671Y-4.4302
X5.59Y-4.4625
X5.605Y-4.265
X5.61Y-4.005
X5.655Y-3.8575
X5.655Y-4.005
X5.7125Y-4.4875
X5.7125Y-3.9975
X5.7696Y-4.0156
X5.7975Y-4.2525
X5.8075Y-4.175
X5.8129Y-3.998
X5.8311Y-4.1472
X5.85Y-3.9975
X5.9723Y-4.1216
X5.992Y-4.0969
X6.0142Y-4.17
T2
X5.135Y-4.149
X5.2125Y-4.15
X5.25Y-4.41
X5.42Y-3.8675
X5.42Y-3.92
X5.5525Y-3.775
X5.5618Y-4.1653
X5.6075Y-4.315
X5.655Y-4.315
X5.7Y-4.255
X5.7075Y-4.44
X5.79Y-4.485
X5.8678Y-4.1539
X5.87Y-4.2575
X6.0325Y-4.015
X6.135Y-4.215
X6.1575Y-4.1775
X6.1975Y-4.0675
X6.2Y-4.1375
X6.226Y-4.2749
T3
X5.5525Y-4.5225
X5.6273Y-4.5225
T5
X6.06Y-3.83
X6.16Y-3.83
X6.26Y-3.83
X6.06Y-4.4725
X6.16Y-4.4725
X6.26Y-4.4725
T6
X6.535Y-3.9531
X6.535Y-4.15
X6.535Y-4.3469
T4
G00X4.843Y-3.9799
M15
G01X4.8194Y-3.9799
M16
G05
G00X4.843Y-4.3201
M15
G01X4.8194Y-4.3201
M16
G05
G00X5.0174Y-3.9799
M15
G01X4.9741Y-3.9799
M16
G05
G00X5.0174Y-4.3201
M15
G01X4.9741Y-4.3201
M16
G05
T0
M30
