%TF.GenerationSoftware,KiCad,Pcbnew,5.1.8*%
%TF.CreationDate,2020-12-05T00:24:13-05:00*%
%TF.ProjectId,cantankerous,63616e74-616e-46b6-9572-6f75732e6b69,rev?*%
%TF.SameCoordinates,Original*%
%TF.FileFunction,Paste,Top*%
%TF.FilePolarity,Positive*%
%FSLAX46Y46*%
G04 Gerber Fmt 4.6, Leading zero omitted, Abs format (unit mm)*
G04 Created by KiCad (PCBNEW 5.1.8) date 2020-12-05 00:24:13*
%MOMM*%
%LPD*%
G01*
G04 APERTURE LIST*
%ADD10C,0.152400*%
%ADD11R,3.606800X3.606800*%
%ADD12R,1.346200X0.228600*%
%ADD13R,0.228600X1.346200*%
%ADD14R,1.200000X1.400000*%
%ADD15R,0.800000X0.900000*%
%ADD16R,1.450000X0.300000*%
%ADD17R,1.450000X0.600000*%
G04 APERTURE END LIST*
D10*
%TO.C,U1*%
X144680000Y-107113400D02*
X144680000Y-105510000D01*
X143076600Y-107113400D02*
X144680000Y-107113400D01*
X143076600Y-105510000D02*
X143076600Y-107113400D01*
X144680000Y-105510000D02*
X143076600Y-105510000D01*
X146483400Y-107113400D02*
X146483400Y-105510000D01*
X144880000Y-107113400D02*
X146483400Y-107113400D01*
X144880000Y-105510000D02*
X144880000Y-107113400D01*
X146483400Y-105510000D02*
X144880000Y-105510000D01*
X144680000Y-105310000D02*
X144680000Y-103706600D01*
X143076600Y-105310000D02*
X144680000Y-105310000D01*
X143076600Y-103706600D02*
X143076600Y-105310000D01*
X144680000Y-103706600D02*
X143076600Y-103706600D01*
X146483400Y-105310000D02*
X146483400Y-103706600D01*
X144880000Y-105310000D02*
X146483400Y-105310000D01*
X144880000Y-103706600D02*
X144880000Y-105310000D01*
X146483400Y-103706600D02*
X144880000Y-103706600D01*
%TD*%
D11*
%TO.C,U1*%
X144780000Y-105410000D03*
D12*
X150456900Y-101660000D03*
X150456900Y-102159999D03*
X150456900Y-102660000D03*
X150456900Y-103159999D03*
X150456900Y-103660001D03*
X150456900Y-104160000D03*
X150456900Y-104659999D03*
X150456900Y-105160000D03*
X150456900Y-105660000D03*
X150456900Y-106160001D03*
X150456900Y-106660000D03*
X150456900Y-107159999D03*
X150456900Y-107660001D03*
X150456900Y-108160000D03*
X150456900Y-108660001D03*
X150456900Y-109160000D03*
D13*
X148530000Y-111086900D03*
X148030001Y-111086900D03*
X147530000Y-111086900D03*
X147030001Y-111086900D03*
X146529999Y-111086900D03*
X146030000Y-111086900D03*
X145530001Y-111086900D03*
X145030000Y-111086900D03*
X144530000Y-111086900D03*
X144029999Y-111086900D03*
X143530000Y-111086900D03*
X143030001Y-111086900D03*
X142529999Y-111086900D03*
X142030000Y-111086900D03*
X141529999Y-111086900D03*
X141030000Y-111086900D03*
D12*
X139103100Y-109160000D03*
X139103100Y-108660001D03*
X139103100Y-108160000D03*
X139103100Y-107660001D03*
X139103100Y-107159999D03*
X139103100Y-106660000D03*
X139103100Y-106160001D03*
X139103100Y-105660000D03*
X139103100Y-105160000D03*
X139103100Y-104659999D03*
X139103100Y-104160000D03*
X139103100Y-103660001D03*
X139103100Y-103159999D03*
X139103100Y-102660000D03*
X139103100Y-102159999D03*
X139103100Y-101660000D03*
D13*
X141030000Y-99733100D03*
X141529999Y-99733100D03*
X142030000Y-99733100D03*
X142529999Y-99733100D03*
X143030001Y-99733100D03*
X143530000Y-99733100D03*
X144029999Y-99733100D03*
X144530000Y-99733100D03*
X145030000Y-99733100D03*
X145530001Y-99733100D03*
X146030000Y-99733100D03*
X146529999Y-99733100D03*
X147030001Y-99733100D03*
X147530000Y-99733100D03*
X148030001Y-99733100D03*
X148530000Y-99733100D03*
%TD*%
D14*
%TO.C,Y1*%
X134620000Y-103292000D03*
X134620000Y-101092000D03*
X136320000Y-101092000D03*
X136320000Y-103292000D03*
%TD*%
%TO.C,C19*%
G36*
G01*
X130953000Y-101125000D02*
X130953000Y-102075000D01*
G75*
G02*
X130703000Y-102325000I-250000J0D01*
G01*
X130028000Y-102325000D01*
G75*
G02*
X129778000Y-102075000I0J250000D01*
G01*
X129778000Y-101125000D01*
G75*
G02*
X130028000Y-100875000I250000J0D01*
G01*
X130703000Y-100875000D01*
G75*
G02*
X130953000Y-101125000I0J-250000D01*
G01*
G37*
G36*
G01*
X133028000Y-101125000D02*
X133028000Y-102075000D01*
G75*
G02*
X132778000Y-102325000I-250000J0D01*
G01*
X132103000Y-102325000D01*
G75*
G02*
X131853000Y-102075000I0J250000D01*
G01*
X131853000Y-101125000D01*
G75*
G02*
X132103000Y-100875000I250000J0D01*
G01*
X132778000Y-100875000D01*
G75*
G02*
X133028000Y-101125000I0J-250000D01*
G01*
G37*
%TD*%
%TO.C,C2*%
G36*
G01*
X135860500Y-98472000D02*
X135860500Y-97997000D01*
G75*
G02*
X136098000Y-97759500I237500J0D01*
G01*
X136698000Y-97759500D01*
G75*
G02*
X136935500Y-97997000I0J-237500D01*
G01*
X136935500Y-98472000D01*
G75*
G02*
X136698000Y-98709500I-237500J0D01*
G01*
X136098000Y-98709500D01*
G75*
G02*
X135860500Y-98472000I0J237500D01*
G01*
G37*
G36*
G01*
X134135500Y-98472000D02*
X134135500Y-97997000D01*
G75*
G02*
X134373000Y-97759500I237500J0D01*
G01*
X134973000Y-97759500D01*
G75*
G02*
X135210500Y-97997000I0J-237500D01*
G01*
X135210500Y-98472000D01*
G75*
G02*
X134973000Y-98709500I-237500J0D01*
G01*
X134373000Y-98709500D01*
G75*
G02*
X134135500Y-98472000I0J237500D01*
G01*
G37*
%TD*%
%TO.C,C1*%
G36*
G01*
X131210000Y-99584500D02*
X131210000Y-100059500D01*
G75*
G02*
X130972500Y-100297000I-237500J0D01*
G01*
X130372500Y-100297000D01*
G75*
G02*
X130135000Y-100059500I0J237500D01*
G01*
X130135000Y-99584500D01*
G75*
G02*
X130372500Y-99347000I237500J0D01*
G01*
X130972500Y-99347000D01*
G75*
G02*
X131210000Y-99584500I0J-237500D01*
G01*
G37*
G36*
G01*
X132935000Y-99584500D02*
X132935000Y-100059500D01*
G75*
G02*
X132697500Y-100297000I-237500J0D01*
G01*
X132097500Y-100297000D01*
G75*
G02*
X131860000Y-100059500I0J237500D01*
G01*
X131860000Y-99584500D01*
G75*
G02*
X132097500Y-99347000I237500J0D01*
G01*
X132697500Y-99347000D01*
G75*
G02*
X132935000Y-99584500I0J-237500D01*
G01*
G37*
%TD*%
D15*
%TO.C,U2*%
X131823500Y-96234500D03*
X132773500Y-98234500D03*
X130873500Y-98234500D03*
%TD*%
%TO.C,R10*%
G36*
G01*
X126659000Y-111600000D02*
X126659000Y-111920000D01*
G75*
G02*
X126499000Y-112080000I-160000J0D01*
G01*
X126104000Y-112080000D01*
G75*
G02*
X125944000Y-111920000I0J160000D01*
G01*
X125944000Y-111600000D01*
G75*
G02*
X126104000Y-111440000I160000J0D01*
G01*
X126499000Y-111440000D01*
G75*
G02*
X126659000Y-111600000I0J-160000D01*
G01*
G37*
G36*
G01*
X127854000Y-111600000D02*
X127854000Y-111920000D01*
G75*
G02*
X127694000Y-112080000I-160000J0D01*
G01*
X127299000Y-112080000D01*
G75*
G02*
X127139000Y-111920000I0J160000D01*
G01*
X127139000Y-111600000D01*
G75*
G02*
X127299000Y-111440000I160000J0D01*
G01*
X127694000Y-111440000D01*
G75*
G02*
X127854000Y-111600000I0J-160000D01*
G01*
G37*
%TD*%
%TO.C,R9*%
G36*
G01*
X126659000Y-98900000D02*
X126659000Y-99220000D01*
G75*
G02*
X126499000Y-99380000I-160000J0D01*
G01*
X126104000Y-99380000D01*
G75*
G02*
X125944000Y-99220000I0J160000D01*
G01*
X125944000Y-98900000D01*
G75*
G02*
X126104000Y-98740000I160000J0D01*
G01*
X126499000Y-98740000D01*
G75*
G02*
X126659000Y-98900000I0J-160000D01*
G01*
G37*
G36*
G01*
X127854000Y-98900000D02*
X127854000Y-99220000D01*
G75*
G02*
X127694000Y-99380000I-160000J0D01*
G01*
X127299000Y-99380000D01*
G75*
G02*
X127139000Y-99220000I0J160000D01*
G01*
X127139000Y-98900000D01*
G75*
G02*
X127299000Y-98740000I160000J0D01*
G01*
X127694000Y-98740000D01*
G75*
G02*
X127854000Y-98900000I0J-160000D01*
G01*
G37*
%TD*%
%TO.C,D2*%
G36*
G01*
X123970500Y-111743500D02*
X123970500Y-111268500D01*
G75*
G02*
X124208000Y-111031000I237500J0D01*
G01*
X124783000Y-111031000D01*
G75*
G02*
X125020500Y-111268500I0J-237500D01*
G01*
X125020500Y-111743500D01*
G75*
G02*
X124783000Y-111981000I-237500J0D01*
G01*
X124208000Y-111981000D01*
G75*
G02*
X123970500Y-111743500I0J237500D01*
G01*
G37*
G36*
G01*
X122220500Y-111743500D02*
X122220500Y-111268500D01*
G75*
G02*
X122458000Y-111031000I237500J0D01*
G01*
X123033000Y-111031000D01*
G75*
G02*
X123270500Y-111268500I0J-237500D01*
G01*
X123270500Y-111743500D01*
G75*
G02*
X123033000Y-111981000I-237500J0D01*
G01*
X122458000Y-111981000D01*
G75*
G02*
X122220500Y-111743500I0J237500D01*
G01*
G37*
%TD*%
%TO.C,D1*%
G36*
G01*
X123970500Y-99551500D02*
X123970500Y-99076500D01*
G75*
G02*
X124208000Y-98839000I237500J0D01*
G01*
X124783000Y-98839000D01*
G75*
G02*
X125020500Y-99076500I0J-237500D01*
G01*
X125020500Y-99551500D01*
G75*
G02*
X124783000Y-99789000I-237500J0D01*
G01*
X124208000Y-99789000D01*
G75*
G02*
X123970500Y-99551500I0J237500D01*
G01*
G37*
G36*
G01*
X122220500Y-99551500D02*
X122220500Y-99076500D01*
G75*
G02*
X122458000Y-98839000I237500J0D01*
G01*
X123033000Y-98839000D01*
G75*
G02*
X123270500Y-99076500I0J-237500D01*
G01*
X123270500Y-99551500D01*
G75*
G02*
X123033000Y-99789000I-237500J0D01*
G01*
X122458000Y-99789000D01*
G75*
G02*
X122220500Y-99551500I0J237500D01*
G01*
G37*
%TD*%
%TO.C,C3*%
G36*
G01*
X135975000Y-106517500D02*
X135975000Y-106207500D01*
G75*
G02*
X136130000Y-106052500I155000J0D01*
G01*
X136555000Y-106052500D01*
G75*
G02*
X136710000Y-106207500I0J-155000D01*
G01*
X136710000Y-106517500D01*
G75*
G02*
X136555000Y-106672500I-155000J0D01*
G01*
X136130000Y-106672500D01*
G75*
G02*
X135975000Y-106517500I0J155000D01*
G01*
G37*
G36*
G01*
X137110000Y-106517500D02*
X137110000Y-106207500D01*
G75*
G02*
X137265000Y-106052500I155000J0D01*
G01*
X137690000Y-106052500D01*
G75*
G02*
X137845000Y-106207500I0J-155000D01*
G01*
X137845000Y-106517500D01*
G75*
G02*
X137690000Y-106672500I-155000J0D01*
G01*
X137265000Y-106672500D01*
G75*
G02*
X137110000Y-106517500I0J155000D01*
G01*
G37*
%TD*%
%TO.C,C4*%
G36*
G01*
X140878500Y-96478000D02*
X141188500Y-96478000D01*
G75*
G02*
X141343500Y-96633000I0J-155000D01*
G01*
X141343500Y-97058000D01*
G75*
G02*
X141188500Y-97213000I-155000J0D01*
G01*
X140878500Y-97213000D01*
G75*
G02*
X140723500Y-97058000I0J155000D01*
G01*
X140723500Y-96633000D01*
G75*
G02*
X140878500Y-96478000I155000J0D01*
G01*
G37*
G36*
G01*
X140878500Y-97613000D02*
X141188500Y-97613000D01*
G75*
G02*
X141343500Y-97768000I0J-155000D01*
G01*
X141343500Y-98193000D01*
G75*
G02*
X141188500Y-98348000I-155000J0D01*
G01*
X140878500Y-98348000D01*
G75*
G02*
X140723500Y-98193000I0J155000D01*
G01*
X140723500Y-97768000D01*
G75*
G02*
X140878500Y-97613000I155000J0D01*
G01*
G37*
%TD*%
%TO.C,C5*%
G36*
G01*
X151991000Y-102756500D02*
X152301000Y-102756500D01*
G75*
G02*
X152456000Y-102911500I0J-155000D01*
G01*
X152456000Y-103336500D01*
G75*
G02*
X152301000Y-103491500I-155000J0D01*
G01*
X151991000Y-103491500D01*
G75*
G02*
X151836000Y-103336500I0J155000D01*
G01*
X151836000Y-102911500D01*
G75*
G02*
X151991000Y-102756500I155000J0D01*
G01*
G37*
G36*
G01*
X151991000Y-101621500D02*
X152301000Y-101621500D01*
G75*
G02*
X152456000Y-101776500I0J-155000D01*
G01*
X152456000Y-102201500D01*
G75*
G02*
X152301000Y-102356500I-155000J0D01*
G01*
X151991000Y-102356500D01*
G75*
G02*
X151836000Y-102201500I0J155000D01*
G01*
X151836000Y-101776500D01*
G75*
G02*
X151991000Y-101621500I155000J0D01*
G01*
G37*
%TD*%
%TO.C,C6*%
G36*
G01*
X145387000Y-96478000D02*
X145697000Y-96478000D01*
G75*
G02*
X145852000Y-96633000I0J-155000D01*
G01*
X145852000Y-97058000D01*
G75*
G02*
X145697000Y-97213000I-155000J0D01*
G01*
X145387000Y-97213000D01*
G75*
G02*
X145232000Y-97058000I0J155000D01*
G01*
X145232000Y-96633000D01*
G75*
G02*
X145387000Y-96478000I155000J0D01*
G01*
G37*
G36*
G01*
X145387000Y-97613000D02*
X145697000Y-97613000D01*
G75*
G02*
X145852000Y-97768000I0J-155000D01*
G01*
X145852000Y-98193000D01*
G75*
G02*
X145697000Y-98348000I-155000J0D01*
G01*
X145387000Y-98348000D01*
G75*
G02*
X145232000Y-98193000I0J155000D01*
G01*
X145232000Y-97768000D01*
G75*
G02*
X145387000Y-97613000I155000J0D01*
G01*
G37*
%TD*%
%TO.C,C7*%
G36*
G01*
X144371000Y-96470000D02*
X144681000Y-96470000D01*
G75*
G02*
X144836000Y-96625000I0J-155000D01*
G01*
X144836000Y-97050000D01*
G75*
G02*
X144681000Y-97205000I-155000J0D01*
G01*
X144371000Y-97205000D01*
G75*
G02*
X144216000Y-97050000I0J155000D01*
G01*
X144216000Y-96625000D01*
G75*
G02*
X144371000Y-96470000I155000J0D01*
G01*
G37*
G36*
G01*
X144371000Y-97605000D02*
X144681000Y-97605000D01*
G75*
G02*
X144836000Y-97760000I0J-155000D01*
G01*
X144836000Y-98185000D01*
G75*
G02*
X144681000Y-98340000I-155000J0D01*
G01*
X144371000Y-98340000D01*
G75*
G02*
X144216000Y-98185000I0J155000D01*
G01*
X144216000Y-97760000D01*
G75*
G02*
X144371000Y-97605000I155000J0D01*
G01*
G37*
%TD*%
%TO.C,C8*%
G36*
G01*
X146205000Y-114286500D02*
X145895000Y-114286500D01*
G75*
G02*
X145740000Y-114131500I0J155000D01*
G01*
X145740000Y-113706500D01*
G75*
G02*
X145895000Y-113551500I155000J0D01*
G01*
X146205000Y-113551500D01*
G75*
G02*
X146360000Y-113706500I0J-155000D01*
G01*
X146360000Y-114131500D01*
G75*
G02*
X146205000Y-114286500I-155000J0D01*
G01*
G37*
G36*
G01*
X146205000Y-113151500D02*
X145895000Y-113151500D01*
G75*
G02*
X145740000Y-112996500I0J155000D01*
G01*
X145740000Y-112571500D01*
G75*
G02*
X145895000Y-112416500I155000J0D01*
G01*
X146205000Y-112416500D01*
G75*
G02*
X146360000Y-112571500I0J-155000D01*
G01*
X146360000Y-112996500D01*
G75*
G02*
X146205000Y-113151500I-155000J0D01*
G01*
G37*
%TD*%
%TO.C,C9*%
G36*
G01*
X152301000Y-107238000D02*
X151991000Y-107238000D01*
G75*
G02*
X151836000Y-107083000I0J155000D01*
G01*
X151836000Y-106658000D01*
G75*
G02*
X151991000Y-106503000I155000J0D01*
G01*
X152301000Y-106503000D01*
G75*
G02*
X152456000Y-106658000I0J-155000D01*
G01*
X152456000Y-107083000D01*
G75*
G02*
X152301000Y-107238000I-155000J0D01*
G01*
G37*
G36*
G01*
X152301000Y-108373000D02*
X151991000Y-108373000D01*
G75*
G02*
X151836000Y-108218000I0J155000D01*
G01*
X151836000Y-107793000D01*
G75*
G02*
X151991000Y-107638000I155000J0D01*
G01*
X152301000Y-107638000D01*
G75*
G02*
X152456000Y-107793000I0J-155000D01*
G01*
X152456000Y-108218000D01*
G75*
G02*
X152301000Y-108373000I-155000J0D01*
G01*
G37*
%TD*%
%TO.C,C10*%
G36*
G01*
X139197500Y-111661000D02*
X139197500Y-111351000D01*
G75*
G02*
X139352500Y-111196000I155000J0D01*
G01*
X139777500Y-111196000D01*
G75*
G02*
X139932500Y-111351000I0J-155000D01*
G01*
X139932500Y-111661000D01*
G75*
G02*
X139777500Y-111816000I-155000J0D01*
G01*
X139352500Y-111816000D01*
G75*
G02*
X139197500Y-111661000I0J155000D01*
G01*
G37*
G36*
G01*
X138062500Y-111661000D02*
X138062500Y-111351000D01*
G75*
G02*
X138217500Y-111196000I155000J0D01*
G01*
X138642500Y-111196000D01*
G75*
G02*
X138797500Y-111351000I0J-155000D01*
G01*
X138797500Y-111661000D01*
G75*
G02*
X138642500Y-111816000I-155000J0D01*
G01*
X138217500Y-111816000D01*
G75*
G02*
X138062500Y-111661000I0J155000D01*
G01*
G37*
%TD*%
%TO.C,C11*%
G36*
G01*
X137315000Y-107809500D02*
X137005000Y-107809500D01*
G75*
G02*
X136850000Y-107654500I0J155000D01*
G01*
X136850000Y-107229500D01*
G75*
G02*
X137005000Y-107074500I155000J0D01*
G01*
X137315000Y-107074500D01*
G75*
G02*
X137470000Y-107229500I0J-155000D01*
G01*
X137470000Y-107654500D01*
G75*
G02*
X137315000Y-107809500I-155000J0D01*
G01*
G37*
G36*
G01*
X137315000Y-108944500D02*
X137005000Y-108944500D01*
G75*
G02*
X136850000Y-108789500I0J155000D01*
G01*
X136850000Y-108364500D01*
G75*
G02*
X137005000Y-108209500I155000J0D01*
G01*
X137315000Y-108209500D01*
G75*
G02*
X137470000Y-108364500I0J-155000D01*
G01*
X137470000Y-108789500D01*
G75*
G02*
X137315000Y-108944500I-155000J0D01*
G01*
G37*
%TD*%
%TO.C,C12*%
G36*
G01*
X138062500Y-112677000D02*
X138062500Y-112367000D01*
G75*
G02*
X138217500Y-112212000I155000J0D01*
G01*
X138642500Y-112212000D01*
G75*
G02*
X138797500Y-112367000I0J-155000D01*
G01*
X138797500Y-112677000D01*
G75*
G02*
X138642500Y-112832000I-155000J0D01*
G01*
X138217500Y-112832000D01*
G75*
G02*
X138062500Y-112677000I0J155000D01*
G01*
G37*
G36*
G01*
X139197500Y-112677000D02*
X139197500Y-112367000D01*
G75*
G02*
X139352500Y-112212000I155000J0D01*
G01*
X139777500Y-112212000D01*
G75*
G02*
X139932500Y-112367000I0J-155000D01*
G01*
X139932500Y-112677000D01*
G75*
G02*
X139777500Y-112832000I-155000J0D01*
G01*
X139352500Y-112832000D01*
G75*
G02*
X139197500Y-112677000I0J155000D01*
G01*
G37*
%TD*%
%TO.C,C13*%
G36*
G01*
X135376500Y-104747000D02*
X135376500Y-105057000D01*
G75*
G02*
X135221500Y-105212000I-155000J0D01*
G01*
X134796500Y-105212000D01*
G75*
G02*
X134641500Y-105057000I0J155000D01*
G01*
X134641500Y-104747000D01*
G75*
G02*
X134796500Y-104592000I155000J0D01*
G01*
X135221500Y-104592000D01*
G75*
G02*
X135376500Y-104747000I0J-155000D01*
G01*
G37*
G36*
G01*
X136511500Y-104747000D02*
X136511500Y-105057000D01*
G75*
G02*
X136356500Y-105212000I-155000J0D01*
G01*
X135931500Y-105212000D01*
G75*
G02*
X135776500Y-105057000I0J155000D01*
G01*
X135776500Y-104747000D01*
G75*
G02*
X135931500Y-104592000I155000J0D01*
G01*
X136356500Y-104592000D01*
G75*
G02*
X136511500Y-104747000I0J-155000D01*
G01*
G37*
%TD*%
%TO.C,C14*%
G36*
G01*
X137019500Y-99413000D02*
X137019500Y-99723000D01*
G75*
G02*
X136864500Y-99878000I-155000J0D01*
G01*
X136439500Y-99878000D01*
G75*
G02*
X136284500Y-99723000I0J155000D01*
G01*
X136284500Y-99413000D01*
G75*
G02*
X136439500Y-99258000I155000J0D01*
G01*
X136864500Y-99258000D01*
G75*
G02*
X137019500Y-99413000I0J-155000D01*
G01*
G37*
G36*
G01*
X135884500Y-99413000D02*
X135884500Y-99723000D01*
G75*
G02*
X135729500Y-99878000I-155000J0D01*
G01*
X135304500Y-99878000D01*
G75*
G02*
X135149500Y-99723000I0J155000D01*
G01*
X135149500Y-99413000D01*
G75*
G02*
X135304500Y-99258000I155000J0D01*
G01*
X135729500Y-99258000D01*
G75*
G02*
X135884500Y-99413000I0J-155000D01*
G01*
G37*
%TD*%
%TO.C,C15*%
G36*
G01*
X137473000Y-111539000D02*
X137473000Y-112489000D01*
G75*
G02*
X137223000Y-112739000I-250000J0D01*
G01*
X136548000Y-112739000D01*
G75*
G02*
X136298000Y-112489000I0J250000D01*
G01*
X136298000Y-111539000D01*
G75*
G02*
X136548000Y-111289000I250000J0D01*
G01*
X137223000Y-111289000D01*
G75*
G02*
X137473000Y-111539000I0J-250000D01*
G01*
G37*
G36*
G01*
X135398000Y-111539000D02*
X135398000Y-112489000D01*
G75*
G02*
X135148000Y-112739000I-250000J0D01*
G01*
X134473000Y-112739000D01*
G75*
G02*
X134223000Y-112489000I0J250000D01*
G01*
X134223000Y-111539000D01*
G75*
G02*
X134473000Y-111289000I250000J0D01*
G01*
X135148000Y-111289000D01*
G75*
G02*
X135398000Y-111539000I0J-250000D01*
G01*
G37*
%TD*%
%TO.C,C16*%
G36*
G01*
X134079000Y-108494500D02*
X133129000Y-108494500D01*
G75*
G02*
X132879000Y-108244500I0J250000D01*
G01*
X132879000Y-107569500D01*
G75*
G02*
X133129000Y-107319500I250000J0D01*
G01*
X134079000Y-107319500D01*
G75*
G02*
X134329000Y-107569500I0J-250000D01*
G01*
X134329000Y-108244500D01*
G75*
G02*
X134079000Y-108494500I-250000J0D01*
G01*
G37*
G36*
G01*
X134079000Y-110569500D02*
X133129000Y-110569500D01*
G75*
G02*
X132879000Y-110319500I0J250000D01*
G01*
X132879000Y-109644500D01*
G75*
G02*
X133129000Y-109394500I250000J0D01*
G01*
X134079000Y-109394500D01*
G75*
G02*
X134329000Y-109644500I0J-250000D01*
G01*
X134329000Y-110319500D01*
G75*
G02*
X134079000Y-110569500I-250000J0D01*
G01*
G37*
%TD*%
%TO.C,C17*%
G36*
G01*
X139855000Y-115493000D02*
X139545000Y-115493000D01*
G75*
G02*
X139390000Y-115338000I0J155000D01*
G01*
X139390000Y-114913000D01*
G75*
G02*
X139545000Y-114758000I155000J0D01*
G01*
X139855000Y-114758000D01*
G75*
G02*
X140010000Y-114913000I0J-155000D01*
G01*
X140010000Y-115338000D01*
G75*
G02*
X139855000Y-115493000I-155000J0D01*
G01*
G37*
G36*
G01*
X139855000Y-114358000D02*
X139545000Y-114358000D01*
G75*
G02*
X139390000Y-114203000I0J155000D01*
G01*
X139390000Y-113778000D01*
G75*
G02*
X139545000Y-113623000I155000J0D01*
G01*
X139855000Y-113623000D01*
G75*
G02*
X140010000Y-113778000I0J-155000D01*
G01*
X140010000Y-114203000D01*
G75*
G02*
X139855000Y-114358000I-155000J0D01*
G01*
G37*
%TD*%
%TO.C,C18*%
G36*
G01*
X144117000Y-113623000D02*
X144427000Y-113623000D01*
G75*
G02*
X144582000Y-113778000I0J-155000D01*
G01*
X144582000Y-114203000D01*
G75*
G02*
X144427000Y-114358000I-155000J0D01*
G01*
X144117000Y-114358000D01*
G75*
G02*
X143962000Y-114203000I0J155000D01*
G01*
X143962000Y-113778000D01*
G75*
G02*
X144117000Y-113623000I155000J0D01*
G01*
G37*
G36*
G01*
X144117000Y-114758000D02*
X144427000Y-114758000D01*
G75*
G02*
X144582000Y-114913000I0J-155000D01*
G01*
X144582000Y-115338000D01*
G75*
G02*
X144427000Y-115493000I-155000J0D01*
G01*
X144117000Y-115493000D01*
G75*
G02*
X143962000Y-115338000I0J155000D01*
G01*
X143962000Y-114913000D01*
G75*
G02*
X144117000Y-114758000I155000J0D01*
G01*
G37*
%TD*%
%TO.C,F1*%
G36*
G01*
X132981500Y-103181999D02*
X132981500Y-104082001D01*
G75*
G02*
X132731501Y-104332000I-249999J0D01*
G01*
X132081499Y-104332000D01*
G75*
G02*
X131831500Y-104082001I0J249999D01*
G01*
X131831500Y-103181999D01*
G75*
G02*
X132081499Y-102932000I249999J0D01*
G01*
X132731501Y-102932000D01*
G75*
G02*
X132981500Y-103181999I0J-249999D01*
G01*
G37*
G36*
G01*
X130931500Y-103181999D02*
X130931500Y-104082001D01*
G75*
G02*
X130681501Y-104332000I-249999J0D01*
G01*
X130031499Y-104332000D01*
G75*
G02*
X129781500Y-104082001I0J249999D01*
G01*
X129781500Y-103181999D01*
G75*
G02*
X130031499Y-102932000I249999J0D01*
G01*
X130681501Y-102932000D01*
G75*
G02*
X130931500Y-103181999I0J-249999D01*
G01*
G37*
%TD*%
D16*
%TO.C,J2*%
X127806500Y-105160000D03*
X127806500Y-107160000D03*
X127806500Y-106660000D03*
X127806500Y-106160000D03*
X127806500Y-105660000D03*
X127806500Y-104660000D03*
X127806500Y-104160000D03*
X127806500Y-103660000D03*
D17*
X127806500Y-108660000D03*
X127806500Y-107860000D03*
X127806500Y-102960000D03*
X127806500Y-102160000D03*
X127806500Y-102160000D03*
X127806500Y-102960000D03*
X127806500Y-107860000D03*
X127806500Y-108660000D03*
%TD*%
%TO.C,L1*%
G36*
G01*
X136111000Y-110569500D02*
X135161000Y-110569500D01*
G75*
G02*
X134911000Y-110319500I0J250000D01*
G01*
X134911000Y-109644500D01*
G75*
G02*
X135161000Y-109394500I250000J0D01*
G01*
X136111000Y-109394500D01*
G75*
G02*
X136361000Y-109644500I0J-250000D01*
G01*
X136361000Y-110319500D01*
G75*
G02*
X136111000Y-110569500I-250000J0D01*
G01*
G37*
G36*
G01*
X136111000Y-108494500D02*
X135161000Y-108494500D01*
G75*
G02*
X134911000Y-108244500I0J250000D01*
G01*
X134911000Y-107569500D01*
G75*
G02*
X135161000Y-107319500I250000J0D01*
G01*
X136111000Y-107319500D01*
G75*
G02*
X136361000Y-107569500I0J-250000D01*
G01*
X136361000Y-108244500D01*
G75*
G02*
X136111000Y-108494500I-250000J0D01*
G01*
G37*
%TD*%
%TO.C,R1*%
G36*
G01*
X155864000Y-102268000D02*
X155864000Y-101948000D01*
G75*
G02*
X156024000Y-101788000I160000J0D01*
G01*
X156419000Y-101788000D01*
G75*
G02*
X156579000Y-101948000I0J-160000D01*
G01*
X156579000Y-102268000D01*
G75*
G02*
X156419000Y-102428000I-160000J0D01*
G01*
X156024000Y-102428000D01*
G75*
G02*
X155864000Y-102268000I0J160000D01*
G01*
G37*
G36*
G01*
X157059000Y-102268000D02*
X157059000Y-101948000D01*
G75*
G02*
X157219000Y-101788000I160000J0D01*
G01*
X157614000Y-101788000D01*
G75*
G02*
X157774000Y-101948000I0J-160000D01*
G01*
X157774000Y-102268000D01*
G75*
G02*
X157614000Y-102428000I-160000J0D01*
G01*
X157219000Y-102428000D01*
G75*
G02*
X157059000Y-102268000I0J160000D01*
G01*
G37*
%TD*%
%TO.C,R2*%
G36*
G01*
X146746000Y-98140500D02*
X146746000Y-97820500D01*
G75*
G02*
X146906000Y-97660500I160000J0D01*
G01*
X147301000Y-97660500D01*
G75*
G02*
X147461000Y-97820500I0J-160000D01*
G01*
X147461000Y-98140500D01*
G75*
G02*
X147301000Y-98300500I-160000J0D01*
G01*
X146906000Y-98300500D01*
G75*
G02*
X146746000Y-98140500I0J160000D01*
G01*
G37*
G36*
G01*
X147941000Y-98140500D02*
X147941000Y-97820500D01*
G75*
G02*
X148101000Y-97660500I160000J0D01*
G01*
X148496000Y-97660500D01*
G75*
G02*
X148656000Y-97820500I0J-160000D01*
G01*
X148656000Y-98140500D01*
G75*
G02*
X148496000Y-98300500I-160000J0D01*
G01*
X148101000Y-98300500D01*
G75*
G02*
X147941000Y-98140500I0J160000D01*
G01*
G37*
%TD*%
%TO.C,R6*%
G36*
G01*
X130469000Y-108552000D02*
X130469000Y-108872000D01*
G75*
G02*
X130309000Y-109032000I-160000J0D01*
G01*
X129914000Y-109032000D01*
G75*
G02*
X129754000Y-108872000I0J160000D01*
G01*
X129754000Y-108552000D01*
G75*
G02*
X129914000Y-108392000I160000J0D01*
G01*
X130309000Y-108392000D01*
G75*
G02*
X130469000Y-108552000I0J-160000D01*
G01*
G37*
G36*
G01*
X131664000Y-108552000D02*
X131664000Y-108872000D01*
G75*
G02*
X131504000Y-109032000I-160000J0D01*
G01*
X131109000Y-109032000D01*
G75*
G02*
X130949000Y-108872000I0J160000D01*
G01*
X130949000Y-108552000D01*
G75*
G02*
X131109000Y-108392000I160000J0D01*
G01*
X131504000Y-108392000D01*
G75*
G02*
X131664000Y-108552000I0J-160000D01*
G01*
G37*
%TD*%
%TO.C,R7*%
G36*
G01*
X129754000Y-107856000D02*
X129754000Y-107536000D01*
G75*
G02*
X129914000Y-107376000I160000J0D01*
G01*
X130309000Y-107376000D01*
G75*
G02*
X130469000Y-107536000I0J-160000D01*
G01*
X130469000Y-107856000D01*
G75*
G02*
X130309000Y-108016000I-160000J0D01*
G01*
X129914000Y-108016000D01*
G75*
G02*
X129754000Y-107856000I0J160000D01*
G01*
G37*
G36*
G01*
X130949000Y-107856000D02*
X130949000Y-107536000D01*
G75*
G02*
X131109000Y-107376000I160000J0D01*
G01*
X131504000Y-107376000D01*
G75*
G02*
X131664000Y-107536000I0J-160000D01*
G01*
X131664000Y-107856000D01*
G75*
G02*
X131504000Y-108016000I-160000J0D01*
G01*
X131109000Y-108016000D01*
G75*
G02*
X130949000Y-107856000I0J160000D01*
G01*
G37*
%TD*%
%TO.C,R8*%
G36*
G01*
X157667500Y-110473500D02*
X157667500Y-109998500D01*
G75*
G02*
X157905000Y-109761000I237500J0D01*
G01*
X158405000Y-109761000D01*
G75*
G02*
X158642500Y-109998500I0J-237500D01*
G01*
X158642500Y-110473500D01*
G75*
G02*
X158405000Y-110711000I-237500J0D01*
G01*
X157905000Y-110711000D01*
G75*
G02*
X157667500Y-110473500I0J237500D01*
G01*
G37*
G36*
G01*
X159492500Y-110473500D02*
X159492500Y-109998500D01*
G75*
G02*
X159730000Y-109761000I237500J0D01*
G01*
X160230000Y-109761000D01*
G75*
G02*
X160467500Y-109998500I0J-237500D01*
G01*
X160467500Y-110473500D01*
G75*
G02*
X160230000Y-110711000I-237500J0D01*
G01*
X159730000Y-110711000D01*
G75*
G02*
X159492500Y-110473500I0J237500D01*
G01*
G37*
%TD*%
%TO.C,U3*%
G36*
G01*
X153711000Y-104988500D02*
X153711000Y-104688500D01*
G75*
G02*
X153861000Y-104538500I150000J0D01*
G01*
X155511000Y-104538500D01*
G75*
G02*
X155661000Y-104688500I0J-150000D01*
G01*
X155661000Y-104988500D01*
G75*
G02*
X155511000Y-105138500I-150000J0D01*
G01*
X153861000Y-105138500D01*
G75*
G02*
X153711000Y-104988500I0J150000D01*
G01*
G37*
G36*
G01*
X153711000Y-106258500D02*
X153711000Y-105958500D01*
G75*
G02*
X153861000Y-105808500I150000J0D01*
G01*
X155511000Y-105808500D01*
G75*
G02*
X155661000Y-105958500I0J-150000D01*
G01*
X155661000Y-106258500D01*
G75*
G02*
X155511000Y-106408500I-150000J0D01*
G01*
X153861000Y-106408500D01*
G75*
G02*
X153711000Y-106258500I0J150000D01*
G01*
G37*
G36*
G01*
X153711000Y-107528500D02*
X153711000Y-107228500D01*
G75*
G02*
X153861000Y-107078500I150000J0D01*
G01*
X155511000Y-107078500D01*
G75*
G02*
X155661000Y-107228500I0J-150000D01*
G01*
X155661000Y-107528500D01*
G75*
G02*
X155511000Y-107678500I-150000J0D01*
G01*
X153861000Y-107678500D01*
G75*
G02*
X153711000Y-107528500I0J150000D01*
G01*
G37*
G36*
G01*
X153711000Y-108798500D02*
X153711000Y-108498500D01*
G75*
G02*
X153861000Y-108348500I150000J0D01*
G01*
X155511000Y-108348500D01*
G75*
G02*
X155661000Y-108498500I0J-150000D01*
G01*
X155661000Y-108798500D01*
G75*
G02*
X155511000Y-108948500I-150000J0D01*
G01*
X153861000Y-108948500D01*
G75*
G02*
X153711000Y-108798500I0J150000D01*
G01*
G37*
G36*
G01*
X158661000Y-108798500D02*
X158661000Y-108498500D01*
G75*
G02*
X158811000Y-108348500I150000J0D01*
G01*
X160461000Y-108348500D01*
G75*
G02*
X160611000Y-108498500I0J-150000D01*
G01*
X160611000Y-108798500D01*
G75*
G02*
X160461000Y-108948500I-150000J0D01*
G01*
X158811000Y-108948500D01*
G75*
G02*
X158661000Y-108798500I0J150000D01*
G01*
G37*
G36*
G01*
X158661000Y-107528500D02*
X158661000Y-107228500D01*
G75*
G02*
X158811000Y-107078500I150000J0D01*
G01*
X160461000Y-107078500D01*
G75*
G02*
X160611000Y-107228500I0J-150000D01*
G01*
X160611000Y-107528500D01*
G75*
G02*
X160461000Y-107678500I-150000J0D01*
G01*
X158811000Y-107678500D01*
G75*
G02*
X158661000Y-107528500I0J150000D01*
G01*
G37*
G36*
G01*
X158661000Y-106258500D02*
X158661000Y-105958500D01*
G75*
G02*
X158811000Y-105808500I150000J0D01*
G01*
X160461000Y-105808500D01*
G75*
G02*
X160611000Y-105958500I0J-150000D01*
G01*
X160611000Y-106258500D01*
G75*
G02*
X160461000Y-106408500I-150000J0D01*
G01*
X158811000Y-106408500D01*
G75*
G02*
X158661000Y-106258500I0J150000D01*
G01*
G37*
G36*
G01*
X158661000Y-104988500D02*
X158661000Y-104688500D01*
G75*
G02*
X158811000Y-104538500I150000J0D01*
G01*
X160461000Y-104538500D01*
G75*
G02*
X160611000Y-104688500I0J-150000D01*
G01*
X160611000Y-104988500D01*
G75*
G02*
X160461000Y-105138500I-150000J0D01*
G01*
X158811000Y-105138500D01*
G75*
G02*
X158661000Y-104988500I0J150000D01*
G01*
G37*
%TD*%
M02*
