%TF.GenerationSoftware,KiCad,Pcbnew,5.1.8*%
%TF.CreationDate,2020-12-05T00:24:13-05:00*%
%TF.ProjectId,cantankerous,63616e74-616e-46b6-9572-6f75732e6b69,rev?*%
%TF.SameCoordinates,Original*%
%TF.FileFunction,Legend,Top*%
%TF.FilePolarity,Positive*%
%FSLAX46Y46*%
G04 Gerber Fmt 4.6, Leading zero omitted, Abs format (unit mm)*
G04 Created by KiCad (PCBNEW 5.1.8) date 2020-12-05 00:24:13*
%MOMM*%
%LPD*%
G01*
G04 APERTURE LIST*
%ADD10C,0.150000*%
%ADD11C,0.120000*%
%ADD12C,0.152400*%
G04 APERTURE END LIST*
D10*
X141021261Y-102431904D02*
X141021261Y-103003333D01*
X140983166Y-103117619D01*
X140906976Y-103193809D01*
X140792690Y-103231904D01*
X140716500Y-103231904D01*
X141783166Y-103231904D02*
X141402214Y-103231904D01*
X141402214Y-102431904D01*
X142506976Y-103155714D02*
X142468880Y-103193809D01*
X142354595Y-103231904D01*
X142278404Y-103231904D01*
X142164119Y-103193809D01*
X142087928Y-103117619D01*
X142049833Y-103041428D01*
X142011738Y-102889047D01*
X142011738Y-102774761D01*
X142049833Y-102622380D01*
X142087928Y-102546190D01*
X142164119Y-102470000D01*
X142278404Y-102431904D01*
X142354595Y-102431904D01*
X142468880Y-102470000D01*
X142506976Y-102508095D01*
X143078404Y-102431904D02*
X143078404Y-103003333D01*
X143040309Y-103117619D01*
X142964119Y-103193809D01*
X142849833Y-103231904D01*
X142773642Y-103231904D01*
X143840309Y-103231904D02*
X143459357Y-103231904D01*
X143459357Y-102431904D01*
X144564119Y-103155714D02*
X144526023Y-103193809D01*
X144411738Y-103231904D01*
X144335547Y-103231904D01*
X144221261Y-103193809D01*
X144145071Y-103117619D01*
X144106976Y-103041428D01*
X144068880Y-102889047D01*
X144068880Y-102774761D01*
X144106976Y-102622380D01*
X144145071Y-102546190D01*
X144221261Y-102470000D01*
X144335547Y-102431904D01*
X144411738Y-102431904D01*
X144526023Y-102470000D01*
X144564119Y-102508095D01*
X145135547Y-102431904D02*
X145135547Y-103003333D01*
X145097452Y-103117619D01*
X145021261Y-103193809D01*
X144906976Y-103231904D01*
X144830785Y-103231904D01*
X145897452Y-103231904D02*
X145516500Y-103231904D01*
X145516500Y-102431904D01*
X146621261Y-103155714D02*
X146583166Y-103193809D01*
X146468880Y-103231904D01*
X146392690Y-103231904D01*
X146278404Y-103193809D01*
X146202214Y-103117619D01*
X146164119Y-103041428D01*
X146126023Y-102889047D01*
X146126023Y-102774761D01*
X146164119Y-102622380D01*
X146202214Y-102546190D01*
X146278404Y-102470000D01*
X146392690Y-102431904D01*
X146468880Y-102431904D01*
X146583166Y-102470000D01*
X146621261Y-102508095D01*
X147192690Y-102431904D02*
X147192690Y-103003333D01*
X147154595Y-103117619D01*
X147078404Y-103193809D01*
X146964119Y-103231904D01*
X146887928Y-103231904D01*
X147954595Y-103231904D02*
X147573642Y-103231904D01*
X147573642Y-102431904D01*
X148678404Y-103155714D02*
X148640309Y-103193809D01*
X148526023Y-103231904D01*
X148449833Y-103231904D01*
X148335547Y-103193809D01*
X148259357Y-103117619D01*
X148221261Y-103041428D01*
X148183166Y-102889047D01*
X148183166Y-102774761D01*
X148221261Y-102622380D01*
X148259357Y-102546190D01*
X148335547Y-102470000D01*
X148449833Y-102431904D01*
X148526023Y-102431904D01*
X148640309Y-102470000D01*
X148678404Y-102508095D01*
X160903500Y-101320523D02*
X160860642Y-101396714D01*
X160860642Y-101511000D01*
X160903500Y-101625285D01*
X160989214Y-101701476D01*
X161074928Y-101739571D01*
X161246357Y-101777666D01*
X161374928Y-101777666D01*
X161546357Y-101739571D01*
X161632071Y-101701476D01*
X161717785Y-101625285D01*
X161760642Y-101511000D01*
X161760642Y-101434809D01*
X161717785Y-101320523D01*
X161674928Y-101282428D01*
X161374928Y-101282428D01*
X161374928Y-101434809D01*
X161760642Y-100939571D02*
X160860642Y-100939571D01*
X161760642Y-100482428D01*
X160860642Y-100482428D01*
X161760642Y-100101476D02*
X160860642Y-100101476D01*
X160860642Y-99911000D01*
X160903500Y-99796714D01*
X160989214Y-99720523D01*
X161074928Y-99682428D01*
X161246357Y-99644333D01*
X161374928Y-99644333D01*
X161546357Y-99682428D01*
X161632071Y-99720523D01*
X161717785Y-99796714D01*
X161760642Y-99911000D01*
X161760642Y-100101476D01*
X161611428Y-106406833D02*
X161654285Y-106444928D01*
X161697142Y-106559214D01*
X161697142Y-106635404D01*
X161654285Y-106749690D01*
X161568571Y-106825880D01*
X161482857Y-106863976D01*
X161311428Y-106902071D01*
X161182857Y-106902071D01*
X161011428Y-106863976D01*
X160925714Y-106825880D01*
X160840000Y-106749690D01*
X160797142Y-106635404D01*
X160797142Y-106559214D01*
X160840000Y-106444928D01*
X160882857Y-106406833D01*
X161440000Y-106102071D02*
X161440000Y-105721119D01*
X161697142Y-106178261D02*
X160797142Y-105911595D01*
X161697142Y-105644928D01*
X161697142Y-105378261D02*
X160797142Y-105378261D01*
X161697142Y-104921119D01*
X160797142Y-104921119D01*
X161697142Y-104540166D02*
X160797142Y-104540166D01*
X161225714Y-104540166D02*
X161225714Y-104083023D01*
X161697142Y-104083023D02*
X160797142Y-104083023D01*
X161611428Y-111264595D02*
X161654285Y-111302690D01*
X161697142Y-111416976D01*
X161697142Y-111493166D01*
X161654285Y-111607452D01*
X161568571Y-111683642D01*
X161482857Y-111721738D01*
X161311428Y-111759833D01*
X161182857Y-111759833D01*
X161011428Y-111721738D01*
X160925714Y-111683642D01*
X160840000Y-111607452D01*
X160797142Y-111493166D01*
X160797142Y-111416976D01*
X160840000Y-111302690D01*
X160882857Y-111264595D01*
X161440000Y-110959833D02*
X161440000Y-110578880D01*
X161697142Y-111036023D02*
X160797142Y-110769357D01*
X161697142Y-110502690D01*
X161697142Y-110236023D02*
X160797142Y-110236023D01*
X161697142Y-109778880D01*
X160797142Y-109778880D01*
X161697142Y-109016976D02*
X161697142Y-109397928D01*
X160797142Y-109397928D01*
D11*
%TO.C,J3*%
X167669000Y-105410000D02*
G75*
G03*
X167669000Y-105410000I-1680000J0D01*
G01*
X167669000Y-110410000D02*
G75*
G03*
X167669000Y-110410000I-1680000J0D01*
G01*
X167058000Y-106685000D02*
X167012000Y-106638000D01*
X164750000Y-104376000D02*
X164715000Y-104341000D01*
X167264000Y-106480000D02*
X167228000Y-106445000D01*
X164966000Y-104183000D02*
X164920000Y-104136000D01*
X167058000Y-111685000D02*
X167012000Y-111638000D01*
X164750000Y-109376000D02*
X164715000Y-109341000D01*
X167264000Y-111480000D02*
X167228000Y-111445000D01*
X164966000Y-109183000D02*
X164920000Y-109136000D01*
X164308747Y-100438805D02*
G75*
G02*
X164454000Y-99726000I1680253J28805D01*
G01*
X165305958Y-98874574D02*
G75*
G02*
X166673000Y-98875000I683042J-1535426D01*
G01*
X167524426Y-99726958D02*
G75*
G02*
X167524000Y-101094000I-1535426J-683042D01*
G01*
X166672042Y-101945426D02*
G75*
G02*
X165305000Y-101945000I-683042J1535426D01*
G01*
X164454244Y-101093318D02*
G75*
G02*
X164309000Y-100410000I1534756J683318D01*
G01*
D12*
%TO.C,U1*%
X151384000Y-103850501D02*
X151384000Y-103469501D01*
X151638000Y-103850501D02*
X151384000Y-103850501D01*
X151638000Y-103469501D02*
X151638000Y-103850501D01*
X151384000Y-103469501D02*
X151638000Y-103469501D01*
X151384000Y-108850501D02*
X151384000Y-108469501D01*
X151638000Y-108850501D02*
X151384000Y-108850501D01*
X151638000Y-108469501D02*
X151638000Y-108850501D01*
X151384000Y-108469501D02*
X151638000Y-108469501D01*
X144720501Y-112014000D02*
X144720501Y-112268000D01*
X144339500Y-112014000D02*
X144720501Y-112014000D01*
X144339500Y-112268000D02*
X144339500Y-112014000D01*
X144720501Y-112268000D02*
X144339500Y-112268000D01*
X138176000Y-108350500D02*
X138176000Y-107969500D01*
X137922000Y-108350500D02*
X138176000Y-108350500D01*
X137922000Y-107969500D02*
X137922000Y-108350500D01*
X138176000Y-107969500D02*
X137922000Y-107969500D01*
X138176000Y-103350499D02*
X138176000Y-102969499D01*
X137922000Y-103350499D02*
X138176000Y-103350499D01*
X137922000Y-102969499D02*
X137922000Y-103350499D01*
X138176000Y-102969499D02*
X137922000Y-102969499D01*
X144220499Y-98806000D02*
X144220499Y-98552000D01*
X143839499Y-98806000D02*
X144220499Y-98806000D01*
X143839499Y-98552000D02*
X143839499Y-98806000D01*
X144220499Y-98552000D02*
X143839499Y-98552000D01*
X149910800Y-101212960D02*
X149910800Y-100279200D01*
X148977040Y-110540800D02*
X149910800Y-110540800D01*
X139649200Y-109607040D02*
X139649200Y-110540800D01*
X140582960Y-100279200D02*
X139649200Y-100279200D01*
X149910800Y-100279200D02*
X148977040Y-100279200D01*
X149910800Y-110540800D02*
X149910800Y-109607040D01*
X139649200Y-110540800D02*
X140582960Y-110540800D01*
X139649200Y-100279200D02*
X139649200Y-101212960D01*
D11*
%TO.C,Y1*%
X133820000Y-104192000D02*
X137120000Y-104192000D01*
X137120000Y-104192000D02*
X137120000Y-100192000D01*
%TO.C,C19*%
X131664252Y-102335000D02*
X131141748Y-102335000D01*
X131664252Y-100865000D02*
X131141748Y-100865000D01*
%TO.C,C2*%
X135389233Y-97724500D02*
X135681767Y-97724500D01*
X135389233Y-98744500D02*
X135681767Y-98744500D01*
%TO.C,C1*%
X131681267Y-100332000D02*
X131388733Y-100332000D01*
X131681267Y-99312000D02*
X131388733Y-99312000D01*
%TO.C,U2*%
X133403500Y-96474500D02*
X132473500Y-96474500D01*
X130243500Y-96474500D02*
X131173500Y-96474500D01*
X130243500Y-96474500D02*
X130243500Y-98634500D01*
X133403500Y-96474500D02*
X133403500Y-97934500D01*
%TO.C,R10*%
X127066621Y-112140000D02*
X126731379Y-112140000D01*
X127066621Y-111380000D02*
X126731379Y-111380000D01*
%TO.C,R9*%
X127066621Y-99440000D02*
X126731379Y-99440000D01*
X127066621Y-98680000D02*
X126731379Y-98680000D01*
%TO.C,D2*%
X124420500Y-110771000D02*
X121960500Y-110771000D01*
X121960500Y-110771000D02*
X121960500Y-112241000D01*
X121960500Y-112241000D02*
X124420500Y-112241000D01*
%TO.C,D1*%
X124420500Y-98579000D02*
X121960500Y-98579000D01*
X121960500Y-98579000D02*
X121960500Y-100049000D01*
X121960500Y-100049000D02*
X124420500Y-100049000D01*
%TO.C,C3*%
X136794165Y-106722500D02*
X137025835Y-106722500D01*
X136794165Y-106002500D02*
X137025835Y-106002500D01*
%TO.C,C4*%
X140673500Y-97297165D02*
X140673500Y-97528835D01*
X141393500Y-97297165D02*
X141393500Y-97528835D01*
%TO.C,C5*%
X152506000Y-102440665D02*
X152506000Y-102672335D01*
X151786000Y-102440665D02*
X151786000Y-102672335D01*
%TO.C,C6*%
X145182000Y-97297165D02*
X145182000Y-97528835D01*
X145902000Y-97297165D02*
X145902000Y-97528835D01*
%TO.C,C7*%
X144166000Y-97289165D02*
X144166000Y-97520835D01*
X144886000Y-97289165D02*
X144886000Y-97520835D01*
%TO.C,C8*%
X146410000Y-113467335D02*
X146410000Y-113235665D01*
X145690000Y-113467335D02*
X145690000Y-113235665D01*
%TO.C,C9*%
X151786000Y-107553835D02*
X151786000Y-107322165D01*
X152506000Y-107553835D02*
X152506000Y-107322165D01*
%TO.C,C10*%
X138881665Y-111146000D02*
X139113335Y-111146000D01*
X138881665Y-111866000D02*
X139113335Y-111866000D01*
%TO.C,C11*%
X136800000Y-108125335D02*
X136800000Y-107893665D01*
X137520000Y-108125335D02*
X137520000Y-107893665D01*
%TO.C,C12*%
X138881665Y-112882000D02*
X139113335Y-112882000D01*
X138881665Y-112162000D02*
X139113335Y-112162000D01*
%TO.C,C13*%
X135692335Y-105262000D02*
X135460665Y-105262000D01*
X135692335Y-104542000D02*
X135460665Y-104542000D01*
%TO.C,C14*%
X136200335Y-99208000D02*
X135968665Y-99208000D01*
X136200335Y-99928000D02*
X135968665Y-99928000D01*
%TO.C,C15*%
X136109252Y-111279000D02*
X135586748Y-111279000D01*
X136109252Y-112749000D02*
X135586748Y-112749000D01*
%TO.C,C16*%
X132869000Y-109205752D02*
X132869000Y-108683248D01*
X134339000Y-109205752D02*
X134339000Y-108683248D01*
%TO.C,C17*%
X140060000Y-114673835D02*
X140060000Y-114442165D01*
X139340000Y-114673835D02*
X139340000Y-114442165D01*
%TO.C,C18*%
X143912000Y-114442165D02*
X143912000Y-114673835D01*
X144632000Y-114442165D02*
X144632000Y-114673835D01*
%TO.C,F1*%
X131642752Y-102922000D02*
X131120248Y-102922000D01*
X131642752Y-104342000D02*
X131120248Y-104342000D01*
%TO.C,J2*%
X119861500Y-100710000D02*
X119861500Y-110110000D01*
X125661500Y-110110000D02*
X123661500Y-110110000D01*
X121761500Y-110110000D02*
X119861500Y-110110000D01*
X125661500Y-100710000D02*
X123661500Y-100710000D01*
X121761500Y-100710000D02*
X119861500Y-100710000D01*
%TO.C,BOOT*%
X152594000Y-95952000D02*
X152594000Y-98612000D01*
X157734000Y-95952000D02*
X152594000Y-95952000D01*
X157734000Y-98612000D02*
X152594000Y-98612000D01*
X157734000Y-95952000D02*
X157734000Y-98612000D01*
X159004000Y-95952000D02*
X160334000Y-95952000D01*
X160334000Y-95952000D02*
X160334000Y-97282000D01*
%TO.C,TERM*%
X152594000Y-114931500D02*
X152594000Y-113601500D01*
X153924000Y-114931500D02*
X152594000Y-114931500D01*
X155194000Y-114931500D02*
X155194000Y-112271500D01*
X155194000Y-112271500D02*
X160334000Y-112271500D01*
X155194000Y-114931500D02*
X160334000Y-114931500D01*
X160334000Y-114931500D02*
X160334000Y-112271500D01*
%TO.C,L1*%
X136371000Y-109205752D02*
X136371000Y-108683248D01*
X134901000Y-109205752D02*
X134901000Y-108683248D01*
%TO.C,R1*%
X156651379Y-102488000D02*
X156986621Y-102488000D01*
X156651379Y-101728000D02*
X156986621Y-101728000D01*
%TO.C,R2*%
X147533379Y-98360500D02*
X147868621Y-98360500D01*
X147533379Y-97600500D02*
X147868621Y-97600500D01*
%TO.C,R6*%
X130876621Y-109092000D02*
X130541379Y-109092000D01*
X130876621Y-108332000D02*
X130541379Y-108332000D01*
%TO.C,R7*%
X130541379Y-108076000D02*
X130876621Y-108076000D01*
X130541379Y-107316000D02*
X130876621Y-107316000D01*
%TO.C,R8*%
X158812776Y-110758500D02*
X159322224Y-110758500D01*
X158812776Y-109713500D02*
X159322224Y-109713500D01*
%TO.C,TP1*%
X151504500Y-97345500D02*
G75*
G03*
X151504500Y-97345500I-1200000J0D01*
G01*
%TO.C,U3*%
X157161000Y-104183500D02*
X153711000Y-104183500D01*
X157161000Y-104183500D02*
X159111000Y-104183500D01*
X157161000Y-109303500D02*
X155211000Y-109303500D01*
X157161000Y-109303500D02*
X159111000Y-109303500D01*
%TO.C,J3*%
D10*
X171701380Y-105743333D02*
X172415666Y-105743333D01*
X172558523Y-105790952D01*
X172653761Y-105886190D01*
X172701380Y-106029047D01*
X172701380Y-106124285D01*
X171701380Y-105362380D02*
X171701380Y-104743333D01*
X172082333Y-105076666D01*
X172082333Y-104933809D01*
X172129952Y-104838571D01*
X172177571Y-104790952D01*
X172272809Y-104743333D01*
X172510904Y-104743333D01*
X172606142Y-104790952D01*
X172653761Y-104838571D01*
X172701380Y-104933809D01*
X172701380Y-105219523D01*
X172653761Y-105314761D01*
X172606142Y-105362380D01*
%TO.C,U1*%
X144232380Y-106171904D02*
X145041904Y-106171904D01*
X145137142Y-106124285D01*
X145184761Y-106076666D01*
X145232380Y-105981428D01*
X145232380Y-105790952D01*
X145184761Y-105695714D01*
X145137142Y-105648095D01*
X145041904Y-105600476D01*
X144232380Y-105600476D01*
X145232380Y-104600476D02*
X145232380Y-105171904D01*
X145232380Y-104886190D02*
X144232380Y-104886190D01*
X144375238Y-104981428D01*
X144470476Y-105076666D01*
X144518095Y-105171904D01*
X139533928Y-118752880D02*
X139057738Y-118752880D01*
X139057738Y-117752880D01*
X139867261Y-118752880D02*
X139867261Y-117752880D01*
X140248214Y-117752880D01*
X140343452Y-117800500D01*
X140391071Y-117848119D01*
X140438690Y-117943357D01*
X140438690Y-118086214D01*
X140391071Y-118181452D01*
X140343452Y-118229071D01*
X140248214Y-118276690D01*
X139867261Y-118276690D01*
X141438690Y-118657642D02*
X141391071Y-118705261D01*
X141248214Y-118752880D01*
X141152976Y-118752880D01*
X141010119Y-118705261D01*
X140914880Y-118610023D01*
X140867261Y-118514785D01*
X140819642Y-118324309D01*
X140819642Y-118181452D01*
X140867261Y-117990976D01*
X140914880Y-117895738D01*
X141010119Y-117800500D01*
X141152976Y-117752880D01*
X141248214Y-117752880D01*
X141391071Y-117800500D01*
X141438690Y-117848119D01*
X142343452Y-117752880D02*
X141867261Y-117752880D01*
X141819642Y-118229071D01*
X141867261Y-118181452D01*
X141962500Y-118133833D01*
X142200595Y-118133833D01*
X142295833Y-118181452D01*
X142343452Y-118229071D01*
X142391071Y-118324309D01*
X142391071Y-118562404D01*
X142343452Y-118657642D01*
X142295833Y-118705261D01*
X142200595Y-118752880D01*
X141962500Y-118752880D01*
X141867261Y-118705261D01*
X141819642Y-118657642D01*
X143295833Y-117752880D02*
X142819642Y-117752880D01*
X142772023Y-118229071D01*
X142819642Y-118181452D01*
X142914880Y-118133833D01*
X143152976Y-118133833D01*
X143248214Y-118181452D01*
X143295833Y-118229071D01*
X143343452Y-118324309D01*
X143343452Y-118562404D01*
X143295833Y-118657642D01*
X143248214Y-118705261D01*
X143152976Y-118752880D01*
X142914880Y-118752880D01*
X142819642Y-118705261D01*
X142772023Y-118657642D01*
X144295833Y-118752880D02*
X143724404Y-118752880D01*
X144010119Y-118752880D02*
X144010119Y-117752880D01*
X143914880Y-117895738D01*
X143819642Y-117990976D01*
X143724404Y-118038595D01*
X145152976Y-118086214D02*
X145152976Y-118752880D01*
X144914880Y-117705261D02*
X144676785Y-118419547D01*
X145295833Y-118419547D01*
X145962500Y-117752880D02*
X145962500Y-118467166D01*
X145914880Y-118610023D01*
X145819642Y-118705261D01*
X145676785Y-118752880D01*
X145581547Y-118752880D01*
X146772023Y-118229071D02*
X146914880Y-118276690D01*
X146962500Y-118324309D01*
X147010119Y-118419547D01*
X147010119Y-118562404D01*
X146962500Y-118657642D01*
X146914880Y-118705261D01*
X146819642Y-118752880D01*
X146438690Y-118752880D01*
X146438690Y-117752880D01*
X146772023Y-117752880D01*
X146867261Y-117800500D01*
X146914880Y-117848119D01*
X146962500Y-117943357D01*
X146962500Y-118038595D01*
X146914880Y-118133833D01*
X146867261Y-118181452D01*
X146772023Y-118229071D01*
X146438690Y-118229071D01*
X147438690Y-118752880D02*
X147438690Y-117752880D01*
X147676785Y-117752880D01*
X147819642Y-117800500D01*
X147914880Y-117895738D01*
X147962500Y-117990976D01*
X148010119Y-118181452D01*
X148010119Y-118324309D01*
X147962500Y-118514785D01*
X147914880Y-118610023D01*
X147819642Y-118705261D01*
X147676785Y-118752880D01*
X147438690Y-118752880D01*
X148867261Y-117752880D02*
X148676785Y-117752880D01*
X148581547Y-117800500D01*
X148533928Y-117848119D01*
X148438690Y-117990976D01*
X148391071Y-118181452D01*
X148391071Y-118562404D01*
X148438690Y-118657642D01*
X148486309Y-118705261D01*
X148581547Y-118752880D01*
X148772023Y-118752880D01*
X148867261Y-118705261D01*
X148914880Y-118657642D01*
X148962500Y-118562404D01*
X148962500Y-118324309D01*
X148914880Y-118229071D01*
X148867261Y-118181452D01*
X148772023Y-118133833D01*
X148581547Y-118133833D01*
X148486309Y-118181452D01*
X148438690Y-118229071D01*
X148391071Y-118324309D01*
X149819642Y-118086214D02*
X149819642Y-118752880D01*
X149581547Y-117705261D02*
X149343452Y-118419547D01*
X149962500Y-118419547D01*
X148613380Y-98425000D02*
X148851476Y-98425000D01*
X148756238Y-98663095D02*
X148851476Y-98425000D01*
X148756238Y-98186904D01*
X149041952Y-98567857D02*
X148851476Y-98425000D01*
X149041952Y-98282142D01*
X148613380Y-98425000D02*
X148851476Y-98425000D01*
X148756238Y-98663095D02*
X148851476Y-98425000D01*
X148756238Y-98186904D01*
X149041952Y-98567857D02*
X148851476Y-98425000D01*
X149041952Y-98282142D01*
%TO.C,Y1*%
X137572809Y-100941190D02*
X137572809Y-101417380D01*
X137239476Y-100417380D02*
X137572809Y-100941190D01*
X137906142Y-100417380D01*
X138763285Y-101417380D02*
X138191857Y-101417380D01*
X138477571Y-101417380D02*
X138477571Y-100417380D01*
X138382333Y-100560238D01*
X138287095Y-100655476D01*
X138191857Y-100703095D01*
%TO.C,C19*%
X129516142Y-102179357D02*
X129563761Y-102226976D01*
X129611380Y-102369833D01*
X129611380Y-102465071D01*
X129563761Y-102607928D01*
X129468523Y-102703166D01*
X129373285Y-102750785D01*
X129182809Y-102798404D01*
X129039952Y-102798404D01*
X128849476Y-102750785D01*
X128754238Y-102703166D01*
X128659000Y-102607928D01*
X128611380Y-102465071D01*
X128611380Y-102369833D01*
X128659000Y-102226976D01*
X128706619Y-102179357D01*
X129611380Y-101226976D02*
X129611380Y-101798404D01*
X129611380Y-101512690D02*
X128611380Y-101512690D01*
X128754238Y-101607928D01*
X128849476Y-101703166D01*
X128897095Y-101798404D01*
X129611380Y-100750785D02*
X129611380Y-100560309D01*
X129563761Y-100465071D01*
X129516142Y-100417452D01*
X129373285Y-100322214D01*
X129182809Y-100274595D01*
X128801857Y-100274595D01*
X128706619Y-100322214D01*
X128659000Y-100369833D01*
X128611380Y-100465071D01*
X128611380Y-100655547D01*
X128659000Y-100750785D01*
X128706619Y-100798404D01*
X128801857Y-100846023D01*
X129039952Y-100846023D01*
X129135190Y-100798404D01*
X129182809Y-100750785D01*
X129230428Y-100655547D01*
X129230428Y-100465071D01*
X129182809Y-100369833D01*
X129135190Y-100322214D01*
X129039952Y-100274595D01*
%TO.C,C2*%
X135368833Y-97161642D02*
X135321214Y-97209261D01*
X135178357Y-97256880D01*
X135083119Y-97256880D01*
X134940261Y-97209261D01*
X134845023Y-97114023D01*
X134797404Y-97018785D01*
X134749785Y-96828309D01*
X134749785Y-96685452D01*
X134797404Y-96494976D01*
X134845023Y-96399738D01*
X134940261Y-96304500D01*
X135083119Y-96256880D01*
X135178357Y-96256880D01*
X135321214Y-96304500D01*
X135368833Y-96352119D01*
X135749785Y-96352119D02*
X135797404Y-96304500D01*
X135892642Y-96256880D01*
X136130738Y-96256880D01*
X136225976Y-96304500D01*
X136273595Y-96352119D01*
X136321214Y-96447357D01*
X136321214Y-96542595D01*
X136273595Y-96685452D01*
X135702166Y-97256880D01*
X136321214Y-97256880D01*
%TO.C,C1*%
X128865333Y-99734642D02*
X128817714Y-99782261D01*
X128674857Y-99829880D01*
X128579619Y-99829880D01*
X128436761Y-99782261D01*
X128341523Y-99687023D01*
X128293904Y-99591785D01*
X128246285Y-99401309D01*
X128246285Y-99258452D01*
X128293904Y-99067976D01*
X128341523Y-98972738D01*
X128436761Y-98877500D01*
X128579619Y-98829880D01*
X128674857Y-98829880D01*
X128817714Y-98877500D01*
X128865333Y-98925119D01*
X129817714Y-99829880D02*
X129246285Y-99829880D01*
X129532000Y-99829880D02*
X129532000Y-98829880D01*
X129436761Y-98972738D01*
X129341523Y-99067976D01*
X129246285Y-99115595D01*
%TO.C,U2*%
X128775880Y-97996404D02*
X129585404Y-97996404D01*
X129680642Y-97948785D01*
X129728261Y-97901166D01*
X129775880Y-97805928D01*
X129775880Y-97615452D01*
X129728261Y-97520214D01*
X129680642Y-97472595D01*
X129585404Y-97424976D01*
X128775880Y-97424976D01*
X128871119Y-96996404D02*
X128823500Y-96948785D01*
X128775880Y-96853547D01*
X128775880Y-96615452D01*
X128823500Y-96520214D01*
X128871119Y-96472595D01*
X128966357Y-96424976D01*
X129061595Y-96424976D01*
X129204452Y-96472595D01*
X129775880Y-97044023D01*
X129775880Y-96424976D01*
%TO.C,R10*%
X126256142Y-113382380D02*
X125922809Y-112906190D01*
X125684714Y-113382380D02*
X125684714Y-112382380D01*
X126065666Y-112382380D01*
X126160904Y-112430000D01*
X126208523Y-112477619D01*
X126256142Y-112572857D01*
X126256142Y-112715714D01*
X126208523Y-112810952D01*
X126160904Y-112858571D01*
X126065666Y-112906190D01*
X125684714Y-112906190D01*
X127208523Y-113382380D02*
X126637095Y-113382380D01*
X126922809Y-113382380D02*
X126922809Y-112382380D01*
X126827571Y-112525238D01*
X126732333Y-112620476D01*
X126637095Y-112668095D01*
X127827571Y-112382380D02*
X127922809Y-112382380D01*
X128018047Y-112430000D01*
X128065666Y-112477619D01*
X128113285Y-112572857D01*
X128160904Y-112763333D01*
X128160904Y-113001428D01*
X128113285Y-113191904D01*
X128065666Y-113287142D01*
X128018047Y-113334761D01*
X127922809Y-113382380D01*
X127827571Y-113382380D01*
X127732333Y-113334761D01*
X127684714Y-113287142D01*
X127637095Y-113191904D01*
X127589476Y-113001428D01*
X127589476Y-112763333D01*
X127637095Y-112572857D01*
X127684714Y-112477619D01*
X127732333Y-112430000D01*
X127827571Y-112382380D01*
%TO.C,R9*%
X126694833Y-98242380D02*
X126361500Y-97766190D01*
X126123404Y-98242380D02*
X126123404Y-97242380D01*
X126504357Y-97242380D01*
X126599595Y-97290000D01*
X126647214Y-97337619D01*
X126694833Y-97432857D01*
X126694833Y-97575714D01*
X126647214Y-97670952D01*
X126599595Y-97718571D01*
X126504357Y-97766190D01*
X126123404Y-97766190D01*
X127171023Y-98242380D02*
X127361500Y-98242380D01*
X127456738Y-98194761D01*
X127504357Y-98147142D01*
X127599595Y-98004285D01*
X127647214Y-97813809D01*
X127647214Y-97432857D01*
X127599595Y-97337619D01*
X127551976Y-97290000D01*
X127456738Y-97242380D01*
X127266261Y-97242380D01*
X127171023Y-97290000D01*
X127123404Y-97337619D01*
X127075785Y-97432857D01*
X127075785Y-97670952D01*
X127123404Y-97766190D01*
X127171023Y-97813809D01*
X127266261Y-97861428D01*
X127456738Y-97861428D01*
X127551976Y-97813809D01*
X127599595Y-97766190D01*
X127647214Y-97670952D01*
%TO.C,D2*%
X122882404Y-113482380D02*
X122882404Y-112482380D01*
X123120500Y-112482380D01*
X123263357Y-112530000D01*
X123358595Y-112625238D01*
X123406214Y-112720476D01*
X123453833Y-112910952D01*
X123453833Y-113053809D01*
X123406214Y-113244285D01*
X123358595Y-113339523D01*
X123263357Y-113434761D01*
X123120500Y-113482380D01*
X122882404Y-113482380D01*
X123834785Y-112577619D02*
X123882404Y-112530000D01*
X123977642Y-112482380D01*
X124215738Y-112482380D01*
X124310976Y-112530000D01*
X124358595Y-112577619D01*
X124406214Y-112672857D01*
X124406214Y-112768095D01*
X124358595Y-112910952D01*
X123787166Y-113482380D01*
X124406214Y-113482380D01*
%TO.C,D1*%
X122882404Y-98336380D02*
X122882404Y-97336380D01*
X123120500Y-97336380D01*
X123263357Y-97384000D01*
X123358595Y-97479238D01*
X123406214Y-97574476D01*
X123453833Y-97764952D01*
X123453833Y-97907809D01*
X123406214Y-98098285D01*
X123358595Y-98193523D01*
X123263357Y-98288761D01*
X123120500Y-98336380D01*
X122882404Y-98336380D01*
X124406214Y-98336380D02*
X123834785Y-98336380D01*
X124120500Y-98336380D02*
X124120500Y-97336380D01*
X124025261Y-97479238D01*
X123930023Y-97574476D01*
X123834785Y-97622095D01*
%TO.C,C3*%
X134834333Y-106846642D02*
X134786714Y-106894261D01*
X134643857Y-106941880D01*
X134548619Y-106941880D01*
X134405761Y-106894261D01*
X134310523Y-106799023D01*
X134262904Y-106703785D01*
X134215285Y-106513309D01*
X134215285Y-106370452D01*
X134262904Y-106179976D01*
X134310523Y-106084738D01*
X134405761Y-105989500D01*
X134548619Y-105941880D01*
X134643857Y-105941880D01*
X134786714Y-105989500D01*
X134834333Y-106037119D01*
X135167666Y-105941880D02*
X135786714Y-105941880D01*
X135453380Y-106322833D01*
X135596238Y-106322833D01*
X135691476Y-106370452D01*
X135739095Y-106418071D01*
X135786714Y-106513309D01*
X135786714Y-106751404D01*
X135739095Y-106846642D01*
X135691476Y-106894261D01*
X135596238Y-106941880D01*
X135310523Y-106941880D01*
X135215285Y-106894261D01*
X135167666Y-106846642D01*
%TO.C,C4*%
X142550642Y-97579666D02*
X142598261Y-97627285D01*
X142645880Y-97770142D01*
X142645880Y-97865380D01*
X142598261Y-98008238D01*
X142503023Y-98103476D01*
X142407785Y-98151095D01*
X142217309Y-98198714D01*
X142074452Y-98198714D01*
X141883976Y-98151095D01*
X141788738Y-98103476D01*
X141693500Y-98008238D01*
X141645880Y-97865380D01*
X141645880Y-97770142D01*
X141693500Y-97627285D01*
X141741119Y-97579666D01*
X141979214Y-96722523D02*
X142645880Y-96722523D01*
X141598261Y-96960619D02*
X142312547Y-97198714D01*
X142312547Y-96579666D01*
%TO.C,C5*%
X152169833Y-101258642D02*
X152122214Y-101306261D01*
X151979357Y-101353880D01*
X151884119Y-101353880D01*
X151741261Y-101306261D01*
X151646023Y-101211023D01*
X151598404Y-101115785D01*
X151550785Y-100925309D01*
X151550785Y-100782452D01*
X151598404Y-100591976D01*
X151646023Y-100496738D01*
X151741261Y-100401500D01*
X151884119Y-100353880D01*
X151979357Y-100353880D01*
X152122214Y-100401500D01*
X152169833Y-100449119D01*
X153074595Y-100353880D02*
X152598404Y-100353880D01*
X152550785Y-100830071D01*
X152598404Y-100782452D01*
X152693642Y-100734833D01*
X152931738Y-100734833D01*
X153026976Y-100782452D01*
X153074595Y-100830071D01*
X153122214Y-100925309D01*
X153122214Y-101163404D01*
X153074595Y-101258642D01*
X153026976Y-101306261D01*
X152931738Y-101353880D01*
X152693642Y-101353880D01*
X152598404Y-101306261D01*
X152550785Y-101258642D01*
%TO.C,C6*%
X145756333Y-96115142D02*
X145708714Y-96162761D01*
X145565857Y-96210380D01*
X145470619Y-96210380D01*
X145327761Y-96162761D01*
X145232523Y-96067523D01*
X145184904Y-95972285D01*
X145137285Y-95781809D01*
X145137285Y-95638952D01*
X145184904Y-95448476D01*
X145232523Y-95353238D01*
X145327761Y-95258000D01*
X145470619Y-95210380D01*
X145565857Y-95210380D01*
X145708714Y-95258000D01*
X145756333Y-95305619D01*
X146613476Y-95210380D02*
X146423000Y-95210380D01*
X146327761Y-95258000D01*
X146280142Y-95305619D01*
X146184904Y-95448476D01*
X146137285Y-95638952D01*
X146137285Y-96019904D01*
X146184904Y-96115142D01*
X146232523Y-96162761D01*
X146327761Y-96210380D01*
X146518238Y-96210380D01*
X146613476Y-96162761D01*
X146661095Y-96115142D01*
X146708714Y-96019904D01*
X146708714Y-95781809D01*
X146661095Y-95686571D01*
X146613476Y-95638952D01*
X146518238Y-95591333D01*
X146327761Y-95591333D01*
X146232523Y-95638952D01*
X146184904Y-95686571D01*
X146137285Y-95781809D01*
%TO.C,C7*%
X143978333Y-96115142D02*
X143930714Y-96162761D01*
X143787857Y-96210380D01*
X143692619Y-96210380D01*
X143549761Y-96162761D01*
X143454523Y-96067523D01*
X143406904Y-95972285D01*
X143359285Y-95781809D01*
X143359285Y-95638952D01*
X143406904Y-95448476D01*
X143454523Y-95353238D01*
X143549761Y-95258000D01*
X143692619Y-95210380D01*
X143787857Y-95210380D01*
X143930714Y-95258000D01*
X143978333Y-95305619D01*
X144311666Y-95210380D02*
X144978333Y-95210380D01*
X144549761Y-96210380D01*
%TO.C,C8*%
X147677142Y-113450666D02*
X147724761Y-113498285D01*
X147772380Y-113641142D01*
X147772380Y-113736380D01*
X147724761Y-113879238D01*
X147629523Y-113974476D01*
X147534285Y-114022095D01*
X147343809Y-114069714D01*
X147200952Y-114069714D01*
X147010476Y-114022095D01*
X146915238Y-113974476D01*
X146820000Y-113879238D01*
X146772380Y-113736380D01*
X146772380Y-113641142D01*
X146820000Y-113498285D01*
X146867619Y-113450666D01*
X147200952Y-112879238D02*
X147153333Y-112974476D01*
X147105714Y-113022095D01*
X147010476Y-113069714D01*
X146962857Y-113069714D01*
X146867619Y-113022095D01*
X146820000Y-112974476D01*
X146772380Y-112879238D01*
X146772380Y-112688761D01*
X146820000Y-112593523D01*
X146867619Y-112545904D01*
X146962857Y-112498285D01*
X147010476Y-112498285D01*
X147105714Y-112545904D01*
X147153333Y-112593523D01*
X147200952Y-112688761D01*
X147200952Y-112879238D01*
X147248571Y-112974476D01*
X147296190Y-113022095D01*
X147391428Y-113069714D01*
X147581904Y-113069714D01*
X147677142Y-113022095D01*
X147724761Y-112974476D01*
X147772380Y-112879238D01*
X147772380Y-112688761D01*
X147724761Y-112593523D01*
X147677142Y-112545904D01*
X147581904Y-112498285D01*
X147391428Y-112498285D01*
X147296190Y-112545904D01*
X147248571Y-112593523D01*
X147200952Y-112688761D01*
%TO.C,C9*%
X152503142Y-109640666D02*
X152550761Y-109688285D01*
X152598380Y-109831142D01*
X152598380Y-109926380D01*
X152550761Y-110069238D01*
X152455523Y-110164476D01*
X152360285Y-110212095D01*
X152169809Y-110259714D01*
X152026952Y-110259714D01*
X151836476Y-110212095D01*
X151741238Y-110164476D01*
X151646000Y-110069238D01*
X151598380Y-109926380D01*
X151598380Y-109831142D01*
X151646000Y-109688285D01*
X151693619Y-109640666D01*
X152598380Y-109164476D02*
X152598380Y-108974000D01*
X152550761Y-108878761D01*
X152503142Y-108831142D01*
X152360285Y-108735904D01*
X152169809Y-108688285D01*
X151788857Y-108688285D01*
X151693619Y-108735904D01*
X151646000Y-108783523D01*
X151598380Y-108878761D01*
X151598380Y-109069238D01*
X151646000Y-109164476D01*
X151693619Y-109212095D01*
X151788857Y-109259714D01*
X152026952Y-109259714D01*
X152122190Y-109212095D01*
X152169809Y-109164476D01*
X152217428Y-109069238D01*
X152217428Y-108878761D01*
X152169809Y-108783523D01*
X152122190Y-108735904D01*
X152026952Y-108688285D01*
%TO.C,C10*%
X138354642Y-110703142D02*
X138307023Y-110750761D01*
X138164166Y-110798380D01*
X138068928Y-110798380D01*
X137926071Y-110750761D01*
X137830833Y-110655523D01*
X137783214Y-110560285D01*
X137735595Y-110369809D01*
X137735595Y-110226952D01*
X137783214Y-110036476D01*
X137830833Y-109941238D01*
X137926071Y-109846000D01*
X138068928Y-109798380D01*
X138164166Y-109798380D01*
X138307023Y-109846000D01*
X138354642Y-109893619D01*
X139307023Y-110798380D02*
X138735595Y-110798380D01*
X139021309Y-110798380D02*
X139021309Y-109798380D01*
X138926071Y-109941238D01*
X138830833Y-110036476D01*
X138735595Y-110084095D01*
X139926071Y-109798380D02*
X140021309Y-109798380D01*
X140116547Y-109846000D01*
X140164166Y-109893619D01*
X140211785Y-109988857D01*
X140259404Y-110179333D01*
X140259404Y-110417428D01*
X140211785Y-110607904D01*
X140164166Y-110703142D01*
X140116547Y-110750761D01*
X140021309Y-110798380D01*
X139926071Y-110798380D01*
X139830833Y-110750761D01*
X139783214Y-110703142D01*
X139735595Y-110607904D01*
X139687976Y-110417428D01*
X139687976Y-110179333D01*
X139735595Y-109988857D01*
X139783214Y-109893619D01*
X139830833Y-109846000D01*
X139926071Y-109798380D01*
%TO.C,C11*%
X137517142Y-110688357D02*
X137564761Y-110735976D01*
X137612380Y-110878833D01*
X137612380Y-110974071D01*
X137564761Y-111116928D01*
X137469523Y-111212166D01*
X137374285Y-111259785D01*
X137183809Y-111307404D01*
X137040952Y-111307404D01*
X136850476Y-111259785D01*
X136755238Y-111212166D01*
X136660000Y-111116928D01*
X136612380Y-110974071D01*
X136612380Y-110878833D01*
X136660000Y-110735976D01*
X136707619Y-110688357D01*
X137612380Y-109735976D02*
X137612380Y-110307404D01*
X137612380Y-110021690D02*
X136612380Y-110021690D01*
X136755238Y-110116928D01*
X136850476Y-110212166D01*
X136898095Y-110307404D01*
X137612380Y-108783595D02*
X137612380Y-109355023D01*
X137612380Y-109069309D02*
X136612380Y-109069309D01*
X136755238Y-109164547D01*
X136850476Y-109259785D01*
X136898095Y-109355023D01*
%TO.C,C12*%
X140819142Y-113164857D02*
X140866761Y-113212476D01*
X140914380Y-113355333D01*
X140914380Y-113450571D01*
X140866761Y-113593428D01*
X140771523Y-113688666D01*
X140676285Y-113736285D01*
X140485809Y-113783904D01*
X140342952Y-113783904D01*
X140152476Y-113736285D01*
X140057238Y-113688666D01*
X139962000Y-113593428D01*
X139914380Y-113450571D01*
X139914380Y-113355333D01*
X139962000Y-113212476D01*
X140009619Y-113164857D01*
X140914380Y-112212476D02*
X140914380Y-112783904D01*
X140914380Y-112498190D02*
X139914380Y-112498190D01*
X140057238Y-112593428D01*
X140152476Y-112688666D01*
X140200095Y-112783904D01*
X140009619Y-111831523D02*
X139962000Y-111783904D01*
X139914380Y-111688666D01*
X139914380Y-111450571D01*
X139962000Y-111355333D01*
X140009619Y-111307714D01*
X140104857Y-111260095D01*
X140200095Y-111260095D01*
X140342952Y-111307714D01*
X140914380Y-111879142D01*
X140914380Y-111260095D01*
%TO.C,C13*%
X134278642Y-106370357D02*
X134326261Y-106417976D01*
X134373880Y-106560833D01*
X134373880Y-106656071D01*
X134326261Y-106798928D01*
X134231023Y-106894166D01*
X134135785Y-106941785D01*
X133945309Y-106989404D01*
X133802452Y-106989404D01*
X133611976Y-106941785D01*
X133516738Y-106894166D01*
X133421500Y-106798928D01*
X133373880Y-106656071D01*
X133373880Y-106560833D01*
X133421500Y-106417976D01*
X133469119Y-106370357D01*
X134373880Y-105417976D02*
X134373880Y-105989404D01*
X134373880Y-105703690D02*
X133373880Y-105703690D01*
X133516738Y-105798928D01*
X133611976Y-105894166D01*
X133659595Y-105989404D01*
X133373880Y-105084642D02*
X133373880Y-104465595D01*
X133754833Y-104798928D01*
X133754833Y-104656071D01*
X133802452Y-104560833D01*
X133850071Y-104513214D01*
X133945309Y-104465595D01*
X134183404Y-104465595D01*
X134278642Y-104513214D01*
X134326261Y-104560833D01*
X134373880Y-104656071D01*
X134373880Y-104941785D01*
X134326261Y-105037023D01*
X134278642Y-105084642D01*
%TO.C,C14*%
X137850642Y-99988642D02*
X137803023Y-100036261D01*
X137660166Y-100083880D01*
X137564928Y-100083880D01*
X137422071Y-100036261D01*
X137326833Y-99941023D01*
X137279214Y-99845785D01*
X137231595Y-99655309D01*
X137231595Y-99512452D01*
X137279214Y-99321976D01*
X137326833Y-99226738D01*
X137422071Y-99131500D01*
X137564928Y-99083880D01*
X137660166Y-99083880D01*
X137803023Y-99131500D01*
X137850642Y-99179119D01*
X138803023Y-100083880D02*
X138231595Y-100083880D01*
X138517309Y-100083880D02*
X138517309Y-99083880D01*
X138422071Y-99226738D01*
X138326833Y-99321976D01*
X138231595Y-99369595D01*
X139660166Y-99417214D02*
X139660166Y-100083880D01*
X139422071Y-99036261D02*
X139183976Y-99750547D01*
X139803023Y-99750547D01*
%TO.C,C15*%
X135205142Y-114051142D02*
X135157523Y-114098761D01*
X135014666Y-114146380D01*
X134919428Y-114146380D01*
X134776571Y-114098761D01*
X134681333Y-114003523D01*
X134633714Y-113908285D01*
X134586095Y-113717809D01*
X134586095Y-113574952D01*
X134633714Y-113384476D01*
X134681333Y-113289238D01*
X134776571Y-113194000D01*
X134919428Y-113146380D01*
X135014666Y-113146380D01*
X135157523Y-113194000D01*
X135205142Y-113241619D01*
X136157523Y-114146380D02*
X135586095Y-114146380D01*
X135871809Y-114146380D02*
X135871809Y-113146380D01*
X135776571Y-113289238D01*
X135681333Y-113384476D01*
X135586095Y-113432095D01*
X137062285Y-113146380D02*
X136586095Y-113146380D01*
X136538476Y-113622571D01*
X136586095Y-113574952D01*
X136681333Y-113527333D01*
X136919428Y-113527333D01*
X137014666Y-113574952D01*
X137062285Y-113622571D01*
X137109904Y-113717809D01*
X137109904Y-113955904D01*
X137062285Y-114051142D01*
X137014666Y-114098761D01*
X136919428Y-114146380D01*
X136681333Y-114146380D01*
X136586095Y-114098761D01*
X136538476Y-114051142D01*
%TO.C,C16*%
X131691142Y-111672642D02*
X131643523Y-111720261D01*
X131500666Y-111767880D01*
X131405428Y-111767880D01*
X131262571Y-111720261D01*
X131167333Y-111625023D01*
X131119714Y-111529785D01*
X131072095Y-111339309D01*
X131072095Y-111196452D01*
X131119714Y-111005976D01*
X131167333Y-110910738D01*
X131262571Y-110815500D01*
X131405428Y-110767880D01*
X131500666Y-110767880D01*
X131643523Y-110815500D01*
X131691142Y-110863119D01*
X132643523Y-111767880D02*
X132072095Y-111767880D01*
X132357809Y-111767880D02*
X132357809Y-110767880D01*
X132262571Y-110910738D01*
X132167333Y-111005976D01*
X132072095Y-111053595D01*
X133500666Y-110767880D02*
X133310190Y-110767880D01*
X133214952Y-110815500D01*
X133167333Y-110863119D01*
X133072095Y-111005976D01*
X133024476Y-111196452D01*
X133024476Y-111577404D01*
X133072095Y-111672642D01*
X133119714Y-111720261D01*
X133214952Y-111767880D01*
X133405428Y-111767880D01*
X133500666Y-111720261D01*
X133548285Y-111672642D01*
X133595904Y-111577404D01*
X133595904Y-111339309D01*
X133548285Y-111244071D01*
X133500666Y-111196452D01*
X133405428Y-111148833D01*
X133214952Y-111148833D01*
X133119714Y-111196452D01*
X133072095Y-111244071D01*
X133024476Y-111339309D01*
%TO.C,C17*%
X138897142Y-115200857D02*
X138944761Y-115248476D01*
X138992380Y-115391333D01*
X138992380Y-115486571D01*
X138944761Y-115629428D01*
X138849523Y-115724666D01*
X138754285Y-115772285D01*
X138563809Y-115819904D01*
X138420952Y-115819904D01*
X138230476Y-115772285D01*
X138135238Y-115724666D01*
X138040000Y-115629428D01*
X137992380Y-115486571D01*
X137992380Y-115391333D01*
X138040000Y-115248476D01*
X138087619Y-115200857D01*
X138992380Y-114248476D02*
X138992380Y-114819904D01*
X138992380Y-114534190D02*
X137992380Y-114534190D01*
X138135238Y-114629428D01*
X138230476Y-114724666D01*
X138278095Y-114819904D01*
X137992380Y-113915142D02*
X137992380Y-113248476D01*
X138992380Y-113677047D01*
%TO.C,C18*%
X145789142Y-115200857D02*
X145836761Y-115248476D01*
X145884380Y-115391333D01*
X145884380Y-115486571D01*
X145836761Y-115629428D01*
X145741523Y-115724666D01*
X145646285Y-115772285D01*
X145455809Y-115819904D01*
X145312952Y-115819904D01*
X145122476Y-115772285D01*
X145027238Y-115724666D01*
X144932000Y-115629428D01*
X144884380Y-115486571D01*
X144884380Y-115391333D01*
X144932000Y-115248476D01*
X144979619Y-115200857D01*
X145884380Y-114248476D02*
X145884380Y-114819904D01*
X145884380Y-114534190D02*
X144884380Y-114534190D01*
X145027238Y-114629428D01*
X145122476Y-114724666D01*
X145170095Y-114819904D01*
X145312952Y-113677047D02*
X145265333Y-113772285D01*
X145217714Y-113819904D01*
X145122476Y-113867523D01*
X145074857Y-113867523D01*
X144979619Y-113819904D01*
X144932000Y-113772285D01*
X144884380Y-113677047D01*
X144884380Y-113486571D01*
X144932000Y-113391333D01*
X144979619Y-113343714D01*
X145074857Y-113296095D01*
X145122476Y-113296095D01*
X145217714Y-113343714D01*
X145265333Y-113391333D01*
X145312952Y-113486571D01*
X145312952Y-113677047D01*
X145360571Y-113772285D01*
X145408190Y-113819904D01*
X145503428Y-113867523D01*
X145693904Y-113867523D01*
X145789142Y-113819904D01*
X145836761Y-113772285D01*
X145884380Y-113677047D01*
X145884380Y-113486571D01*
X145836761Y-113391333D01*
X145789142Y-113343714D01*
X145693904Y-113296095D01*
X145503428Y-113296095D01*
X145408190Y-113343714D01*
X145360571Y-113391333D01*
X145312952Y-113486571D01*
%TO.C,F1*%
X131048166Y-105210571D02*
X130714833Y-105210571D01*
X130714833Y-105734380D02*
X130714833Y-104734380D01*
X131191023Y-104734380D01*
X132095785Y-105734380D02*
X131524357Y-105734380D01*
X131810071Y-105734380D02*
X131810071Y-104734380D01*
X131714833Y-104877238D01*
X131619595Y-104972476D01*
X131524357Y-105020095D01*
%TO.C,J2*%
X123277380Y-105743333D02*
X123991666Y-105743333D01*
X124134523Y-105790952D01*
X124229761Y-105886190D01*
X124277380Y-106029047D01*
X124277380Y-106124285D01*
X123372619Y-105314761D02*
X123325000Y-105267142D01*
X123277380Y-105171904D01*
X123277380Y-104933809D01*
X123325000Y-104838571D01*
X123372619Y-104790952D01*
X123467857Y-104743333D01*
X123563095Y-104743333D01*
X123705952Y-104790952D01*
X124277380Y-105362380D01*
X124277380Y-104743333D01*
%TO.C,BOOT*%
X152947857Y-99306071D02*
X153090714Y-99353690D01*
X153138333Y-99401309D01*
X153185952Y-99496547D01*
X153185952Y-99639404D01*
X153138333Y-99734642D01*
X153090714Y-99782261D01*
X152995476Y-99829880D01*
X152614523Y-99829880D01*
X152614523Y-98829880D01*
X152947857Y-98829880D01*
X153043095Y-98877500D01*
X153090714Y-98925119D01*
X153138333Y-99020357D01*
X153138333Y-99115595D01*
X153090714Y-99210833D01*
X153043095Y-99258452D01*
X152947857Y-99306071D01*
X152614523Y-99306071D01*
X153805000Y-98829880D02*
X153995476Y-98829880D01*
X154090714Y-98877500D01*
X154185952Y-98972738D01*
X154233571Y-99163214D01*
X154233571Y-99496547D01*
X154185952Y-99687023D01*
X154090714Y-99782261D01*
X153995476Y-99829880D01*
X153805000Y-99829880D01*
X153709761Y-99782261D01*
X153614523Y-99687023D01*
X153566904Y-99496547D01*
X153566904Y-99163214D01*
X153614523Y-98972738D01*
X153709761Y-98877500D01*
X153805000Y-98829880D01*
X154852619Y-98829880D02*
X155043095Y-98829880D01*
X155138333Y-98877500D01*
X155233571Y-98972738D01*
X155281190Y-99163214D01*
X155281190Y-99496547D01*
X155233571Y-99687023D01*
X155138333Y-99782261D01*
X155043095Y-99829880D01*
X154852619Y-99829880D01*
X154757380Y-99782261D01*
X154662142Y-99687023D01*
X154614523Y-99496547D01*
X154614523Y-99163214D01*
X154662142Y-98972738D01*
X154757380Y-98877500D01*
X154852619Y-98829880D01*
X155566904Y-98829880D02*
X156138333Y-98829880D01*
X155852619Y-99829880D02*
X155852619Y-98829880D01*
%TO.C,TERM*%
X156876976Y-111085380D02*
X157448404Y-111085380D01*
X157162690Y-112085380D02*
X157162690Y-111085380D01*
X157781738Y-111561571D02*
X158115071Y-111561571D01*
X158257928Y-112085380D02*
X157781738Y-112085380D01*
X157781738Y-111085380D01*
X158257928Y-111085380D01*
X159257928Y-112085380D02*
X158924595Y-111609190D01*
X158686500Y-112085380D02*
X158686500Y-111085380D01*
X159067452Y-111085380D01*
X159162690Y-111133000D01*
X159210309Y-111180619D01*
X159257928Y-111275857D01*
X159257928Y-111418714D01*
X159210309Y-111513952D01*
X159162690Y-111561571D01*
X159067452Y-111609190D01*
X158686500Y-111609190D01*
X159686500Y-112085380D02*
X159686500Y-111085380D01*
X160019833Y-111799666D01*
X160353166Y-111085380D01*
X160353166Y-112085380D01*
%TO.C,L1*%
X134408380Y-109111166D02*
X134408380Y-109587357D01*
X133408380Y-109587357D01*
X134408380Y-108254023D02*
X134408380Y-108825452D01*
X134408380Y-108539738D02*
X133408380Y-108539738D01*
X133551238Y-108634976D01*
X133646476Y-108730214D01*
X133694095Y-108825452D01*
%TO.C,R1*%
X156652333Y-101390380D02*
X156319000Y-100914190D01*
X156080904Y-101390380D02*
X156080904Y-100390380D01*
X156461857Y-100390380D01*
X156557095Y-100438000D01*
X156604714Y-100485619D01*
X156652333Y-100580857D01*
X156652333Y-100723714D01*
X156604714Y-100818952D01*
X156557095Y-100866571D01*
X156461857Y-100914190D01*
X156080904Y-100914190D01*
X157604714Y-101390380D02*
X157033285Y-101390380D01*
X157319000Y-101390380D02*
X157319000Y-100390380D01*
X157223761Y-100533238D01*
X157128523Y-100628476D01*
X157033285Y-100676095D01*
%TO.C,R2*%
X147534333Y-97262880D02*
X147201000Y-96786690D01*
X146962904Y-97262880D02*
X146962904Y-96262880D01*
X147343857Y-96262880D01*
X147439095Y-96310500D01*
X147486714Y-96358119D01*
X147534333Y-96453357D01*
X147534333Y-96596214D01*
X147486714Y-96691452D01*
X147439095Y-96739071D01*
X147343857Y-96786690D01*
X146962904Y-96786690D01*
X147915285Y-96358119D02*
X147962904Y-96310500D01*
X148058142Y-96262880D01*
X148296238Y-96262880D01*
X148391476Y-96310500D01*
X148439095Y-96358119D01*
X148486714Y-96453357D01*
X148486714Y-96548595D01*
X148439095Y-96691452D01*
X147867666Y-97262880D01*
X148486714Y-97262880D01*
%TO.C,R6*%
X130542333Y-110334380D02*
X130209000Y-109858190D01*
X129970904Y-110334380D02*
X129970904Y-109334380D01*
X130351857Y-109334380D01*
X130447095Y-109382000D01*
X130494714Y-109429619D01*
X130542333Y-109524857D01*
X130542333Y-109667714D01*
X130494714Y-109762952D01*
X130447095Y-109810571D01*
X130351857Y-109858190D01*
X129970904Y-109858190D01*
X131399476Y-109334380D02*
X131209000Y-109334380D01*
X131113761Y-109382000D01*
X131066142Y-109429619D01*
X130970904Y-109572476D01*
X130923285Y-109762952D01*
X130923285Y-110143904D01*
X130970904Y-110239142D01*
X131018523Y-110286761D01*
X131113761Y-110334380D01*
X131304238Y-110334380D01*
X131399476Y-110286761D01*
X131447095Y-110239142D01*
X131494714Y-110143904D01*
X131494714Y-109905809D01*
X131447095Y-109810571D01*
X131399476Y-109762952D01*
X131304238Y-109715333D01*
X131113761Y-109715333D01*
X131018523Y-109762952D01*
X130970904Y-109810571D01*
X130923285Y-109905809D01*
%TO.C,R7*%
X130542333Y-106978380D02*
X130209000Y-106502190D01*
X129970904Y-106978380D02*
X129970904Y-105978380D01*
X130351857Y-105978380D01*
X130447095Y-106026000D01*
X130494714Y-106073619D01*
X130542333Y-106168857D01*
X130542333Y-106311714D01*
X130494714Y-106406952D01*
X130447095Y-106454571D01*
X130351857Y-106502190D01*
X129970904Y-106502190D01*
X130875666Y-105978380D02*
X131542333Y-105978380D01*
X131113761Y-106978380D01*
%TO.C,R8*%
X156297333Y-110751880D02*
X155964000Y-110275690D01*
X155725904Y-110751880D02*
X155725904Y-109751880D01*
X156106857Y-109751880D01*
X156202095Y-109799500D01*
X156249714Y-109847119D01*
X156297333Y-109942357D01*
X156297333Y-110085214D01*
X156249714Y-110180452D01*
X156202095Y-110228071D01*
X156106857Y-110275690D01*
X155725904Y-110275690D01*
X156868761Y-110180452D02*
X156773523Y-110132833D01*
X156725904Y-110085214D01*
X156678285Y-109989976D01*
X156678285Y-109942357D01*
X156725904Y-109847119D01*
X156773523Y-109799500D01*
X156868761Y-109751880D01*
X157059238Y-109751880D01*
X157154476Y-109799500D01*
X157202095Y-109847119D01*
X157249714Y-109942357D01*
X157249714Y-109989976D01*
X157202095Y-110085214D01*
X157154476Y-110132833D01*
X157059238Y-110180452D01*
X156868761Y-110180452D01*
X156773523Y-110228071D01*
X156725904Y-110275690D01*
X156678285Y-110370928D01*
X156678285Y-110561404D01*
X156725904Y-110656642D01*
X156773523Y-110704261D01*
X156868761Y-110751880D01*
X157059238Y-110751880D01*
X157154476Y-110704261D01*
X157202095Y-110656642D01*
X157249714Y-110561404D01*
X157249714Y-110370928D01*
X157202095Y-110275690D01*
X157154476Y-110228071D01*
X157059238Y-110180452D01*
%TO.C,TP1*%
X149042595Y-94799880D02*
X149614023Y-94799880D01*
X149328309Y-95799880D02*
X149328309Y-94799880D01*
X149947357Y-95799880D02*
X149947357Y-94799880D01*
X150328309Y-94799880D01*
X150423547Y-94847500D01*
X150471166Y-94895119D01*
X150518785Y-94990357D01*
X150518785Y-95133214D01*
X150471166Y-95228452D01*
X150423547Y-95276071D01*
X150328309Y-95323690D01*
X149947357Y-95323690D01*
X151471166Y-95799880D02*
X150899738Y-95799880D01*
X151185452Y-95799880D02*
X151185452Y-94799880D01*
X151090214Y-94942738D01*
X150994976Y-95037976D01*
X150899738Y-95085595D01*
%TO.C,U3*%
X158940595Y-102830380D02*
X158940595Y-103639904D01*
X158988214Y-103735142D01*
X159035833Y-103782761D01*
X159131071Y-103830380D01*
X159321547Y-103830380D01*
X159416785Y-103782761D01*
X159464404Y-103735142D01*
X159512023Y-103639904D01*
X159512023Y-102830380D01*
X159892976Y-102830380D02*
X160512023Y-102830380D01*
X160178690Y-103211333D01*
X160321547Y-103211333D01*
X160416785Y-103258952D01*
X160464404Y-103306571D01*
X160512023Y-103401809D01*
X160512023Y-103639904D01*
X160464404Y-103735142D01*
X160416785Y-103782761D01*
X160321547Y-103830380D01*
X160035833Y-103830380D01*
X159940595Y-103782761D01*
X159892976Y-103735142D01*
%TD*%
M02*
